<svg width="50" height="50" viewBox="0 0 50 50" fill="none" xmlns="http://www.w3.org/2000/svg">
<path d="M30.1539 3.75637V5.14231C30.1539 5.80559 29.3523 6.13762 28.8836 5.66887L27.457 4.24231C26.9813 3.76653 27.3313 2.95325 28.0047 2.972L29.4313 3.01262C29.8328 3.02356 30.1539 3.35325 30.1539 3.75637Z" fill="#D6D4CE"/>
<path d="M10.9375 3.125L13.2812 7.03125L10.9375 10.9375L8.59375 7.03125L10.9375 3.125Z" fill="#9D2888"/>
<path d="M26.4766 21.0938L19.5312 33.5938V22.4844L26.4766 21.0938Z" fill="#620774"/>
<path d="M19.5312 8.59375V22.4844L12.5859 21.0937L19.5312 8.59375Z" fill="#C47EB8"/>
<path d="M19.5312 8.59375L26.4766 21.0937L19.5312 22.4844V8.59375Z" fill="#9D2888"/>
<path d="M19.5312 22.4844V33.5938L12.5859 21.0938L19.5312 22.4844Z" fill="#9D2888"/>
<path d="M34.7656 36.3281L37.1094 40.2344L34.7656 44.1406L32.4219 40.2344L34.7656 36.3281Z" fill="#9D2888"/>
<path d="M34.7656 44.1406L37.1094 40.2344L34.7656 36.3281L32.4219 40.2344L34.7656 44.1406ZM34.7656 34.125C38.1406 34.125 40.875 36.8594 40.875 40.2344C40.875 43.6094 38.1406 46.3438 34.7656 46.3438C31.3906 46.3438 28.6562 43.6094 28.6562 40.2344C28.6562 36.8594 31.3906 34.125 34.7656 34.125Z" fill="#FFB000"/>
<path d="M36.7813 31.4766C40.7734 32.3906 43.75 35.9688 43.75 40.2344C43.75 45.1953 39.7266 49.2188 34.7656 49.2188C30.9375 49.2188 27.6719 46.8281 26.375 43.4609C25.9922 42.4609 25.7813 41.375 25.7813 40.2344C25.7813 40.1016 25.7812 39.9688 25.7891 39.8438C25.9687 35.7266 28.9141 32.3281 32.8125 31.4609C33.4062 31.3281 34.0312 31.2578 34.6641 31.25H34.7656C35.4609 31.25 36.1328 31.3281 36.7813 31.4766ZM40.875 40.2344C40.875 36.8594 38.1406 34.125 34.7656 34.125C31.3906 34.125 28.6563 36.8594 28.6563 40.2344C28.6563 43.6094 31.3906 46.3438 34.7656 46.3438C38.1406 46.3438 40.875 43.6094 40.875 40.2344Z" fill="#FF8939"/>
<path d="M26.375 43.4609L15.5859 39.8438H25.7891C25.7812 39.9687 25.7812 40.1016 25.7812 40.2344C25.7812 41.375 25.9922 42.4609 26.375 43.4609Z" fill="#72565D"/>
<path d="M34.6641 31.25L39.2188 6.97656C39.2422 6.84375 39.2656 6.70312 39.2656 6.57031L41.5625 7.34375C43.1953 7.89062 44.0781 9.66406 43.5312 11.3047L36.7813 31.4766C36.1328 31.3281 35.4609 31.25 34.7656 31.25C34.7344 31.25 34.6953 31.25 34.6641 31.25Z" fill="#72565D"/>
<path d="M32.8125 31.4609V3.90625C32.8125 3.41406 32.6953 2.94531 32.4844 2.53125L36.7266 3.32813C38.2891 3.625 39.3594 5.02344 39.2656 6.57031C39.2656 6.70312 39.2422 6.84375 39.2188 6.97656L34.6641 31.25C34.0312 31.2578 33.4062 31.3281 32.8125 31.4609Z" fill="#D6D4CE"/>
<path d="M10.9375 3.125L8.59375 7.03125L10.9375 10.9375L13.2812 7.03125L10.9375 3.125ZM9.375 0.78125H29.6875C30.9219 0.78125 31.9844 1.49219 32.4844 2.53125C32.6953 2.94531 32.8125 3.41406 32.8125 3.90625V31.4609C28.9141 32.3281 25.9687 35.7266 25.7891 39.8438H15.5859H9.375C7.64844 39.8438 6.25 38.4453 6.25 36.7188V3.90625C6.25 2.17969 7.64844 0.78125 9.375 0.78125ZM26.4766 21.0938L19.5312 8.59375L12.5859 21.0938L19.5312 33.5938L26.4766 21.0938Z" fill="#F8F4E8"/>
<path d="M30.1539 3.75637V5.14231C30.1539 5.80559 29.3523 6.13762 28.8836 5.66887L27.457 4.24231C26.9813 3.76653 27.3313 2.95325 28.0047 2.972L29.4313 3.01262C29.8328 3.02356 30.1539 3.35325 30.1539 3.75637Z" fill="#D6D4CE"/>
</svg>
