<svg width="50" height="50" viewBox="0 0 50 50" fill="none" xmlns="http://www.w3.org/2000/svg">
<g clip-path="url(#clip0_44_2104)">
<path d="M31.3594 11.1172C31.1594 11.1172 30.9594 11.0406 30.807 10.8883C30.5016 10.5828 30.5016 10.0891 30.807 9.78359L32.5234 8.06719V6.32031C32.5234 5.88828 32.8734 5.53906 33.3047 5.53906C33.7359 5.53906 34.0859 5.88828 34.0859 6.32031V8.39062C34.0859 8.59844 34.0039 8.79687 33.857 8.94297L31.9117 10.8883C31.7594 11.0414 31.5594 11.1172 31.3594 11.1172Z" fill="#FF8939"/>
<path d="M18.6406 11.1172C18.4406 11.1172 18.2406 11.0406 18.0883 10.8883L16.143 8.94297C15.9961 8.79609 15.9141 8.59844 15.9141 8.39062V6.32031C15.9141 5.88828 16.2641 5.53906 16.6953 5.53906C17.1266 5.53906 17.4766 5.88828 17.4766 6.32031V8.06719L19.193 9.78359C19.4984 10.0891 19.4984 10.5828 19.193 10.8883C19.0406 11.0414 18.8406 11.1172 18.6406 11.1172Z" fill="#FF8939"/>
<path d="M25 8.48438C24.5688 8.48438 24.2188 8.13516 24.2188 7.70312V3.54688C24.2188 3.11484 24.5688 2.76562 25 2.76562C25.4312 2.76562 25.7812 3.11484 25.7812 3.54688V7.70312C25.7812 8.13516 25.4312 8.48438 25 8.48438Z" fill="#FF8939"/>
<path d="M16.0313 16.8125C15.8313 16.8125 15.6313 16.7359 15.4789 16.5835L9.05158 10.1562H5.46876C5.03751 10.1562 4.68751 9.80698 4.68751 9.37495V5.79214L2.89298 3.99761C2.58751 3.69214 2.58751 3.19839 2.89298 2.89292C3.19845 2.58745 3.6922 2.58745 3.99767 2.89292L6.02111 4.91636C6.16798 5.06245 6.25001 5.26089 6.25001 5.4687V8.5937H9.37501C9.58204 8.5937 9.78126 8.67573 9.92736 8.82261L16.5836 15.4789C16.8891 15.7843 16.8891 16.2781 16.5836 16.5835C16.4313 16.7359 16.2313 16.8125 16.0313 16.8125Z" fill="#FF8939"/>
<path d="M33.9688 16.8125C33.7688 16.8125 33.5688 16.7359 33.4164 16.5835C33.1109 16.2781 33.1109 15.7843 33.4164 15.4789L40.0727 8.82261C40.2188 8.67573 40.418 8.5937 40.625 8.5937H43.75V5.4687C43.75 5.26089 43.8321 5.06245 43.9789 4.91636L46.0024 2.89292C46.3078 2.58745 46.8016 2.58745 47.1071 2.89292C47.4125 3.19839 47.4125 3.69214 47.1071 3.99761L45.3125 5.79214V9.37495C45.3125 9.80698 44.9625 10.1562 44.5313 10.1562H40.9485L34.5211 16.5835C34.3688 16.7359 34.1688 16.8125 33.9688 16.8125Z" fill="#FF8939"/>
<path d="M13.2813 25H8.59375C8.1625 25 7.8125 24.6507 7.8125 24.2187C7.8125 23.7867 8.1625 23.4375 8.59375 23.4375H12.9578L16.3461 20.0492C16.6516 19.7437 17.1453 19.7437 17.4508 20.0492C17.7563 20.3546 17.7563 20.8484 17.4508 21.1539L13.8336 24.7711C13.6875 24.9179 13.4883 25 13.2813 25Z" fill="#FF8939"/>
<path d="M41.4063 25H36.7188C36.5117 25 36.3125 24.9179 36.1664 24.7711L32.5492 21.1539C32.2438 20.8484 32.2438 20.3546 32.5492 20.0492C32.8547 19.7437 33.3485 19.7437 33.6539 20.0492L37.0422 23.4375H41.4063C41.8375 23.4375 42.1875 23.7867 42.1875 24.2187C42.1875 24.6507 41.8375 25 41.4063 25Z" fill="#FF8939"/>
<path d="M16.1016 18.75H9.375C9.16797 18.75 8.96875 18.668 8.82266 18.5211L6.70781 16.4062H4.6875C4.25625 16.4062 3.90625 16.057 3.90625 15.625C3.90625 15.193 4.25625 14.8438 4.6875 14.8438H7.03125C7.23828 14.8438 7.4375 14.9258 7.58359 15.0727L9.69844 17.1875H16.1016C16.5328 17.1875 16.8828 17.5367 16.8828 17.9688C16.8828 18.4008 16.5328 18.75 16.1016 18.75Z" fill="#FF8939"/>
<path d="M40.625 18.75H33.8984C33.4672 18.75 33.1172 18.4008 33.1172 17.9688C33.1172 17.5367 33.4672 17.1875 33.8984 17.1875H40.3016L42.4164 15.0727C42.5625 14.9258 42.7617 14.8438 42.9688 14.8438H45.3125C45.7438 14.8438 46.0938 15.193 46.0938 15.625C46.0938 16.057 45.7438 16.4062 45.3125 16.4062H43.2922L41.1773 18.5211C41.0313 18.668 40.832 18.75 40.625 18.75Z" fill="#FF8939"/>
<path d="M40.625 30.0078V44.5312H9.375V30.0078C9.375 29.3125 10.2188 28.9688 10.7109 29.4609L16.6328 35.3828C16.9375 35.6875 17.4375 35.6875 17.7422 35.3828L24.4453 28.6797C24.75 28.375 25.25 28.375 25.5547 28.6797L32.2578 35.3828C32.5625 35.6875 33.0625 35.6875 33.3672 35.3828L39.2891 29.4609C39.7812 28.9688 40.625 29.3125 40.625 30.0078Z" fill="#FFB000"/>
<path d="M40.625 30.0141V44.5313H9.375V41.6328H34.075C35.9664 41.6328 37.5 40.0993 37.5 38.2078V31.25L39.2891 29.461C39.782 28.968 40.625 29.3172 40.625 30.0141Z" fill="#FF8939"/>
<path d="M33.3039 6.3165C34.068 6.3165 34.6875 5.69705 34.6875 4.93291C34.6875 4.16877 34.068 3.54932 33.3039 3.54932C32.5397 3.54932 31.9203 4.16877 31.9203 4.93291C31.9203 5.69705 32.5397 6.3165 33.3039 6.3165Z" fill="#FFB000"/>
<path d="M25 3.54844C25.7641 3.54844 26.3836 2.92898 26.3836 2.16484C26.3836 1.40071 25.7641 0.78125 25 0.78125C24.2359 0.78125 23.6164 1.40071 23.6164 2.16484C23.6164 2.92898 24.2359 3.54844 25 3.54844Z" fill="#FFB000"/>
<path d="M16.6961 6.3165C17.4602 6.3165 18.0797 5.69705 18.0797 4.93291C18.0797 4.16877 17.4602 3.54932 16.6961 3.54932C15.932 3.54932 15.3125 4.16877 15.3125 4.93291C15.3125 5.69705 15.932 6.3165 16.6961 6.3165Z" fill="#FFB000"/>
<path d="M2.34375 3.90625C3.2067 3.90625 3.90625 3.2067 3.90625 2.34375C3.90625 1.48081 3.2067 0.78125 2.34375 0.78125C1.48081 0.78125 0.78125 1.48081 0.78125 2.34375C0.78125 3.2067 1.48081 3.90625 2.34375 3.90625Z" fill="#FFB000"/>
<path d="M7.03125 25.7812C7.8942 25.7812 8.59375 25.0817 8.59375 24.2188C8.59375 23.3558 7.8942 22.6562 7.03125 22.6562C6.16831 22.6562 5.46875 23.3558 5.46875 24.2188C5.46875 25.0817 6.16831 25.7812 7.03125 25.7812Z" fill="#FFB000"/>
<path d="M3.125 17.1875C3.98795 17.1875 4.6875 16.4879 4.6875 15.625C4.6875 14.7621 3.98795 14.0625 3.125 14.0625C2.26206 14.0625 1.5625 14.7621 1.5625 15.625C1.5625 16.4879 2.26206 17.1875 3.125 17.1875Z" fill="#FFB000"/>
<path d="M47.6562 3.90625C48.5192 3.90625 49.2188 3.2067 49.2188 2.34375C49.2188 1.48081 48.5192 0.78125 47.6562 0.78125C46.7933 0.78125 46.0938 1.48081 46.0938 2.34375C46.0938 3.2067 46.7933 3.90625 47.6562 3.90625Z" fill="#FFB000"/>
<path d="M42.9688 25.7812C43.8317 25.7812 44.5312 25.0817 44.5312 24.2188C44.5312 23.3558 43.8317 22.6562 42.9688 22.6562C42.1058 22.6562 41.4062 23.3558 41.4062 24.2188C41.4062 25.0817 42.1058 25.7812 42.9688 25.7812Z" fill="#FFB000"/>
<path d="M46.875 17.1875C47.7379 17.1875 48.4375 16.4879 48.4375 15.625C48.4375 14.7621 47.7379 14.0625 46.875 14.0625C46.0121 14.0625 45.3125 14.7621 45.3125 15.625C45.3125 16.4879 46.0121 17.1875 46.875 17.1875Z" fill="#FFB000"/>
<path d="M25 33.1016L27.3438 37.0078L25 40.9219L22.6562 37.0078L25 33.1016Z" fill="#9D2888"/>
<path d="M42.9688 46.0938V47.6562C42.9688 48.5156 42.2656 49.2188 41.4062 49.2188H8.59375C7.73438 49.2188 7.03125 48.5156 7.03125 47.6562V46.0938C7.03125 45.2344 7.73438 44.5312 8.59375 44.5312H9.375H40.625H41.4062C42.2656 44.5312 42.9688 45.2344 42.9688 46.0938Z" fill="#72565D"/>
<path d="M12.5 47.6562H10.1562C9.725 47.6562 9.375 47.307 9.375 46.875C9.375 46.443 9.725 46.0938 10.1562 46.0938H12.5C12.9313 46.0938 13.2812 46.443 13.2812 46.875C13.2812 47.307 12.9313 47.6562 12.5 47.6562Z" fill="#AA9A9E"/>
<path d="M34.375 47.6562H15.625C15.1938 47.6562 14.8438 47.307 14.8438 46.875C14.8438 46.443 15.1938 46.0938 15.625 46.0938H34.375C34.8062 46.0938 35.1562 46.443 35.1562 46.875C35.1562 47.307 34.8062 47.6562 34.375 47.6562Z" fill="#AA9A9E"/>
<path d="M39.8438 47.6562H37.5C37.0688 47.6562 36.7188 47.307 36.7188 46.875C36.7188 46.443 37.0688 46.0938 37.5 46.0938H39.8438C40.275 46.0938 40.625 46.443 40.625 46.875C40.625 47.307 40.275 47.6562 39.8438 47.6562Z" fill="#AA9A9E"/>
<path d="M37.5 42.1875H35.9375C35.5063 42.1875 35.1562 41.8383 35.1562 41.4062C35.1562 40.9742 35.5063 40.625 35.9375 40.625H36.7188V36.7188C36.7188 36.2867 37.0688 35.9375 37.5 35.9375C37.9313 35.9375 38.2812 36.2867 38.2812 36.7188V41.4062C38.2812 41.8383 37.9313 42.1875 37.5 42.1875Z" fill="#FFD066"/>
<path d="M25 12.7891L27.3438 16.6953L25 20.6094L22.6562 16.6953L25 12.7891Z" fill="#9D2888"/>
<path d="M25 22.8125C21.625 22.8125 18.8828 20.0781 18.8828 16.6953C18.8828 13.3203 21.625 10.5781 25 10.5781C28.375 10.5781 31.1172 13.3203 31.1172 16.6953C31.1172 20.0781 28.375 22.8125 25 22.8125ZM25 20.6094L27.3438 16.6953L25 12.7891L22.6563 16.6953L25 20.6094Z" fill="#FFB000"/>
<path d="M25 7.70312C29.9688 7.70312 33.9922 11.7266 33.9922 16.6953C33.9922 21.6641 29.9688 25.6953 25 25.6953C20.0313 25.6953 16.0078 21.6641 16.0078 16.6953C16.0078 11.7266 20.0313 7.70312 25 7.70312ZM31.1172 16.6953C31.1172 13.3203 28.375 10.5781 25 10.5781C21.625 10.5781 18.8828 13.3203 18.8828 16.6953C18.8828 20.0781 21.625 22.8125 25 22.8125C28.375 22.8125 31.1172 20.0781 31.1172 16.6953Z" fill="#FF8939"/>
</g>
<defs>
<clipPath id="clip0_44_2104">
<rect width="50" height="50" fill="white"/>
</clipPath>
</defs>
</svg>
