<svg width="50" height="50" viewBox="0 0 50 50" fill="none" xmlns="http://www.w3.org/2000/svg">
<g clip-path="url(#clip0_44_2096)">
<path d="M25 5.46875C35.7734 5.46875 44.5312 14.2266 44.5312 25C44.5312 35.7734 35.7734 44.5312 25 44.5312C14.2266 44.5312 5.46875 35.7734 5.46875 25C5.46875 14.2266 14.2266 5.46875 25 5.46875Z" fill="#FFB000"/>
<path d="M25 27.3438V39.8438L17.1875 25L25 27.3438Z" fill="#9D2888"/>
<path d="M25 8.59375L32.8125 25L25 27.3438V8.59375Z" fill="#9D2888"/>
<path d="M25 0.78125C38.375 0.78125 49.2188 11.625 49.2188 25C49.2188 38.375 38.375 49.2188 25 49.2188C11.625 49.2188 0.78125 38.375 0.78125 25C0.78125 11.625 11.625 0.78125 25 0.78125ZM44.5312 25C44.5312 14.2266 35.7734 5.46875 25 5.46875C14.2266 5.46875 5.46875 14.2266 5.46875 25C5.46875 35.7734 14.2266 44.5312 25 44.5312C35.7734 44.5312 44.5312 35.7734 44.5312 25Z" fill="#FF8939"/>
<path d="M32.8125 25L25 39.8438V27.3438L32.8125 25Z" fill="#620774"/>
<path d="M25 8.59375V27.3438L17.1875 25L25 8.59375Z" fill="#C47EB8"/>
<path d="M10.7375 17.0134C10.7375 17.0134 10.5914 12.9509 14.6391 11.9227C18.6867 10.8946 11.1078 19.7095 10.7375 17.0134Z" fill="#FFD066"/>
</g>
<defs>
<clipPath id="clip0_44_2096">
<rect width="50" height="50" fill="white"/>
</clipPath>
</defs>
</svg>
