<?xml version="1.0" encoding="utf-8"?><svg viewBox="0 0 20 20" xmlns="http://www.w3.org/2000/svg" xmlns:xlink="http://www.w3.org/1999/xlink"><style>:root>svg{display:none}:root>svg:target{display:block}</style><svg viewBox="0 0 20 12" id="creat-arrow" xmlns="http://www.w3.org/2000/svg"><path d="M1.681 6.835H16.32l-2.742 2.743c-.788.787.393 1.969 1.181 1.181l2.498-2.501 1.667-1.67a.834.834 0 000-1.176l-4.165-4.17a.833.833 0 00-.604-.252c-.75 0-1.118.914-.577 1.434l2.748 2.743H1.638C.483 5.224.57 6.893 1.681 6.835z"/></svg><svg viewBox="0 0 20 20" id="search" xmlns="http://www.w3.org/2000/svg"><path d="M19.81 18.912l-5.163-5.081a8.168 8.168 0 002.183-5.55C16.829 3.707 13.062 0 8.414 0 3.767 0 0 3.707 0 8.28c0 4.574 3.767 8.281 8.414 8.281 2.008 0 3.85-.694 5.297-1.849l5.183 5.101a.655.655 0 00.916 0 .63.63 0 000-.901zM8.414 15.287c-3.932 0-7.12-3.137-7.12-7.006 0-3.87 3.188-7.007 7.12-7.007 3.933 0 7.12 3.137 7.12 7.007 0 3.87-3.187 7.006-7.12 7.006z"/></svg><svg viewBox="0 0 20 11" id="select-arrow" xmlns="http://www.w3.org/2000/svg"><path d="M10 10.91a.906.906 0 01-.643-.267L.267 1.552A.908.908 0 111.551.266L10 8.715 18.448.266a.909.909 0 111.286 1.286l-9.091 9.09a.907.907 0 01-.643.267z"/></svg><svg viewBox="0 0 5 8" id="slider-arrow" xmlns="http://www.w3.org/2000/svg"><path d="M4.17.124a.5.5 0 01.66.753L1.26 4l3.57 3.124a.5.5 0 11-.659.752l-4-3.5a.5.5 0 010-.753l4-3.5z"/></svg><svg viewBox="0 0 5 20" id="timer-icon" xmlns="http://www.w3.org/2000/svg"><circle cx="2.5" cy="2.5" r="2.5"/><circle cx="2.5" cy="17.5" r="2.5"/></svg></svg>