<svg width="50" height="50" viewBox="0 0 50 50" fill="none" xmlns="http://www.w3.org/2000/svg">
<g clip-path="url(#clip0_44_1779)">
<path d="M40.102 16.3288C44.6111 16.3288 48.2665 12.6735 48.2665 8.16442C48.2665 3.65533 44.6111 0 40.102 0C35.593 0 31.9376 3.65533 31.9376 8.16442C31.9376 12.6735 35.593 16.3288 40.102 16.3288Z" fill="#FCD249"/>
<path d="M35.4408 10.8554C33.4236 7.36146 34.2842 2.9979 37.2845 0.50293C36.8538 0.66182 36.4305 0.856941 36.0195 1.09415C32.1148 3.34859 30.7769 8.34166 33.0313 12.2466C35.2857 16.1514 40.2788 17.4894 44.1836 15.2349C44.5946 14.9975 44.9753 14.7284 45.3282 14.435C41.6672 15.7857 37.4579 14.3493 35.4408 10.8554Z" fill="#F9B938"/>
<path d="M40.102 13.5459C43.0741 13.5459 45.4835 11.1365 45.4835 8.16441C45.4835 5.19232 43.0741 2.78296 40.102 2.78296C37.1299 2.78296 34.7206 5.19232 34.7206 8.16441C34.7206 11.1365 37.1299 13.5459 40.102 13.5459Z" fill="#F9B938"/>
<path d="M37.6189 9.59784C36.3493 7.39897 36.8091 4.67752 38.5744 3.00415C38.1765 3.12222 37.7859 3.28707 37.4107 3.50367C34.8365 4.98984 33.9547 8.28131 35.4408 10.8554C36.927 13.4296 40.2184 14.3114 42.7925 12.8252C43.1677 12.6086 43.5057 12.3527 43.807 12.0672C41.4751 12.7594 38.8883 11.7968 37.6189 9.59784Z" fill="#E59C1C"/>
<path d="M32.2736 16.3288C36.7827 16.3288 40.438 12.6735 40.438 8.16442C40.438 3.65533 36.7827 0 32.2736 0C27.7645 0 24.1092 3.65533 24.1092 8.16442C24.1092 12.6735 27.7645 16.3288 32.2736 16.3288Z" fill="#FCD249"/>
<path d="M27.6128 10.8554C25.5956 7.36146 26.4562 2.9979 29.4565 0.50293C29.0258 0.66182 28.6025 0.856941 28.1915 1.09415C24.2868 3.34859 22.9488 8.34166 25.2033 12.2466C27.4577 16.1514 32.4508 17.4894 36.3556 15.2349C36.7666 14.9975 37.1473 14.7284 37.5002 14.435C33.8393 15.7857 29.63 14.3493 27.6128 10.8554Z" fill="#F9B938"/>
<path d="M32.2735 13.5459C35.2456 13.5459 37.655 11.1365 37.655 8.16441C37.655 5.19232 35.2456 2.78296 32.2735 2.78296C29.3015 2.78296 26.8921 5.19232 26.8921 8.16441C26.8921 11.1365 29.3015 13.5459 32.2735 13.5459Z" fill="#F9B938"/>
<path d="M29.791 9.59783C28.5215 7.39896 28.9813 4.67752 30.7464 3.00415C30.3486 3.12222 29.9579 3.28707 29.5827 3.50367C27.0086 4.98983 26.1267 8.2813 27.6129 10.8554C29.099 13.4295 32.3905 14.3114 34.9646 12.8252C35.3398 12.6086 35.6778 12.3527 35.9791 12.0672C33.6473 12.7594 31.0606 11.7968 29.791 9.59783Z" fill="#E59C1C"/>
<path d="M32.9572 13.6827L19.8053 0.430306C19.2364 -0.138553 18.3054 -0.138553 17.7366 0.430306L4.58484 13.6827H32.9572Z" fill="#91CE91"/>
<path d="M19.8053 0.430306C19.2364 -0.138553 18.3054 -0.138553 17.7366 0.430306L4.58484 13.6827H8.50835L20.7327 1.3648L19.8053 0.430306Z" fill="#5EAA5E"/>
<path d="M17.7367 4.36471L8.51923 13.6829H29.0228L19.8054 4.36471C19.2364 3.79575 18.3055 3.79575 17.7367 4.36471Z" fill="#5EAA5E"/>
<path d="M19.8053 4.36463C19.2364 3.79577 18.3054 3.79577 17.7366 4.36463L8.5191 13.6828H11.1348L20.0788 4.6411L19.8053 4.36463Z" fill="#4D964D"/>
<path d="M49.9982 38.4509V45.4422C49.9982 47.9554 47.9537 49.9998 45.4405 49.9998H4.55938C2.04624 49.9998 0.00177002 47.9554 0.00177002 45.4422V18.1395C0.00177002 15.6265 2.04624 13.582 4.55938 13.582H45.4406C47.9538 13.582 49.9983 15.6265 49.9983 18.1395V25.1042" fill="#DD9A5E"/>
<path d="M2.81862 45.4423V18.1395C2.81862 15.6265 4.8631 13.582 7.37623 13.582H4.55938C2.04624 13.582 0.00177002 15.6265 0.00177002 18.1395V45.4423C0.00177002 47.9555 2.04624 49.9999 4.55938 49.9999H7.37623C4.8631 49.9999 2.81862 47.9554 2.81862 45.4423Z" fill="#D38D54"/>
<path d="M49.9982 25.3525H38.3713C34.83 25.3525 31.9327 28.2499 31.9327 31.7911C31.9327 35.3324 34.83 38.2296 38.3713 38.2296H49.9982V25.3525Z" fill="#D38D54"/>
<path d="M32.085 30.4077C31.9864 30.8538 31.9327 31.3161 31.9327 31.7907C31.9327 35.332 34.8301 38.2293 38.3713 38.2293H49.9982V35.4632H38.3713C35.3047 35.4633 32.7224 33.2899 32.085 30.4077Z" fill="#C17B48"/>
<path d="M38.5485 35.3821C40.5488 35.3821 42.1703 33.7606 42.1703 31.7603C42.1703 29.76 40.5488 28.1384 38.5485 28.1384C36.5482 28.1384 34.9266 29.76 34.9266 31.7603C34.9266 33.7606 36.5482 35.3821 38.5485 35.3821Z" fill="#DADADA"/>
<path d="M40.7478 33.4484C38.8158 32.9307 37.6693 30.9448 38.1868 29.0128C38.2708 28.6995 38.3939 28.4073 38.5486 28.1392C36.9486 28.1383 35.4842 29.2049 35.0504 30.8237C34.5326 32.7558 35.6792 34.7416 37.6113 35.2593C39.23 35.6931 40.8861 34.958 41.6853 33.5721C41.3757 33.5718 41.061 33.5322 40.7478 33.4484Z" fill="#C0C0C0"/>
<path d="M3.68625 47.1909C3.71428 46.7751 4.07366 46.4623 4.48978 46.4889C4.50931 46.4902 4.52914 46.4909 4.54887 46.4911C4.96557 46.496 5.29937 46.8377 5.29458 47.2543C5.28247 48.3025 3.61769 48.2076 3.68625 47.1909ZM44.6403 48.0001H44.539C44.1223 48.0001 43.7845 47.6623 43.7845 47.2456C43.7845 46.8288 44.1223 46.4911 44.539 46.4911H44.6403C45.057 46.4911 45.3948 46.8289 45.3948 47.2456C45.3948 47.6623 45.057 48.0001 44.6403 48.0001ZM40.9947 48.0001H40.8934C40.4767 48.0001 40.1389 47.6623 40.1389 47.2456C40.1389 46.8288 40.4767 46.4911 40.8934 46.4911H40.9947C41.4114 46.4911 41.7492 46.8289 41.7492 47.2456C41.7492 47.6623 41.4115 48.0001 40.9947 48.0001ZM37.3494 48.0001H37.2481C36.8314 48.0001 36.4936 47.6623 36.4936 47.2456C36.4936 46.8288 36.8314 46.4911 37.2481 46.4911H37.3494C37.7661 46.4911 38.1039 46.8289 38.1039 47.2456C38.1038 47.6623 37.766 48.0001 37.3494 48.0001ZM33.7038 48.0001H33.6026C33.1859 48.0001 32.8481 47.6623 32.8481 47.2456C32.8481 46.8288 33.1859 46.4911 33.6026 46.4911H33.7038C34.1205 46.4911 34.4583 46.8289 34.4583 47.2456C34.4583 47.6623 34.1206 48.0001 33.7038 48.0001ZM30.0584 48.0001H29.9572C29.5405 48.0001 29.2027 47.6623 29.2027 47.2456C29.2027 46.8288 29.5405 46.4911 29.9572 46.4911H30.0584C30.4752 46.4911 30.813 46.8289 30.813 47.2456C30.813 47.6623 30.4751 48.0001 30.0584 48.0001ZM26.413 48.0001H26.3117C25.895 48.0001 25.5572 47.6623 25.5572 47.2456C25.5572 46.8288 25.895 46.4911 26.3117 46.4911H26.413C26.8297 46.4911 27.1675 46.8289 27.1675 47.2456C27.1674 47.6623 26.8297 48.0001 26.413 48.0001ZM22.7675 48.0001H22.6662C22.2495 48.0001 21.9117 47.6623 21.9117 47.2456C21.9117 46.8288 22.2496 46.4911 22.6662 46.4911H22.7675C23.1842 46.4911 23.522 46.8289 23.522 47.2456C23.522 47.6623 23.1842 48.0001 22.7675 48.0001ZM19.122 48.0001H19.0207C18.604 48.0001 18.2662 47.6623 18.2662 47.2456C18.2662 46.8288 18.604 46.4911 19.0207 46.4911H19.122C19.5387 46.4911 19.8765 46.8289 19.8765 47.2456C19.8765 47.6623 19.5387 48.0001 19.122 48.0001ZM15.4765 48.0001H15.3752C14.9585 48.0001 14.6207 47.6623 14.6207 47.2456C14.6207 46.2394 16.2309 46.2363 16.2309 47.2456C16.231 47.6623 15.8932 48.0001 15.4765 48.0001ZM11.8311 48.0001H11.7299C11.3132 48.0001 10.9754 47.6623 10.9754 47.2456C10.9754 46.2394 12.5856 46.2363 12.5856 47.2456C12.5856 47.6623 12.2477 48.0001 11.8311 48.0001ZM8.18556 48.0001H8.08429C7.66758 48.0001 7.32978 47.6623 7.32978 47.2456C7.32978 46.8288 7.66758 46.4911 8.08429 46.4911H8.18556C8.60226 46.4911 8.94006 46.8289 8.94006 47.2456C8.94006 47.6623 8.60236 48.0001 8.18556 48.0001ZM47.2423 46.2858C47.23 46.2858 47.2177 46.2855 47.2053 46.285C46.7889 46.2648 46.4679 45.9111 46.4881 45.4949C46.4889 45.4775 46.4893 45.46 46.4893 45.4425V45.4302C46.4893 45.0133 46.8271 44.6756 47.2438 44.6756C47.6605 44.6756 47.9983 45.0134 47.9983 45.4302V45.4425C47.9983 45.4845 47.9973 45.5262 47.9953 45.5679C47.9758 45.9716 47.6422 46.2858 47.2423 46.2858ZM2.75615 45.365C2.33945 45.365 2.00165 45.0272 2.00165 44.6105V44.5093C2.00165 44.0925 2.33945 43.7548 2.75615 43.7548C3.17286 43.7548 3.51066 44.0926 3.51066 44.5093V44.6105C3.51076 45.0273 3.17296 45.365 2.75615 45.365ZM47.2438 42.6405C46.8271 42.6405 46.4893 42.3027 46.4893 41.886V41.7848C46.4893 41.368 46.8271 41.0303 47.2438 41.0303C47.6605 41.0303 47.9983 41.3681 47.9983 41.7848V41.886C47.9983 42.3027 47.6604 42.6405 47.2438 42.6405ZM2.75615 41.7196C2.33945 41.7196 2.00165 41.3818 2.00165 40.9651V40.8639C2.00165 40.4471 2.33945 40.1094 2.75615 40.1094C3.17286 40.1094 3.51066 40.4472 3.51066 40.8639V40.9651C3.51076 41.3818 3.17296 41.7196 2.75615 41.7196ZM2.75615 38.0741C2.33945 38.0741 2.00165 37.7363 2.00165 37.3195V37.2184C2.00165 36.8016 2.33945 36.4639 2.75615 36.4639C3.17286 36.4639 3.51066 36.8017 3.51066 37.2184V37.3195C3.51076 37.7364 3.17296 38.0741 2.75615 38.0741ZM2.75615 34.4287C2.33945 34.4287 2.00165 34.0909 2.00165 33.6742V33.573C2.00165 33.1562 2.33945 32.8185 2.75615 32.8185C3.76457 32.8184 3.7634 34.4287 2.75615 34.4287ZM2.75615 30.7833C2.33945 30.7833 2.00165 30.4455 2.00165 30.0288V29.9275C2.00165 29.5107 2.33945 29.173 2.75615 29.173C3.17286 29.173 3.51066 29.5108 3.51066 29.9275V30.0288C3.51076 30.4455 3.17296 30.7833 2.75615 30.7833ZM2.75615 27.1377C2.33945 27.1377 2.00165 26.7999 2.00165 26.3832V26.2819C2.00165 25.8651 2.33945 25.5274 2.75615 25.5274C3.17286 25.5274 3.51066 25.8652 3.51066 26.2819V26.3832C3.51076 26.8 3.17296 27.1377 2.75615 27.1377ZM2.75615 23.4923C2.33945 23.4923 2.00165 23.1545 2.00165 22.7378V22.6365C2.00165 22.2197 2.33945 21.882 2.75615 21.882C3.17286 21.882 3.51066 22.2198 3.51066 22.6365V22.7378C3.51076 23.1545 3.17296 23.4923 2.75615 23.4923ZM47.2438 22.5327C46.8271 22.5327 46.4893 22.1949 46.4893 21.7782V21.677C46.4893 21.2601 46.8271 20.9224 47.2438 20.9224C47.6605 20.9224 47.9983 21.2602 47.9983 21.677V21.7782C47.9983 22.1949 47.6604 22.5327 47.2438 22.5327ZM2.75615 19.8468C2.33945 19.8468 2.00165 19.509 2.00165 19.0923V18.9911C2.00165 18.5743 2.33945 18.2366 2.75615 18.2366C3.17286 18.2366 3.51066 18.5744 3.51066 18.9911V19.0923C3.51076 19.5091 3.17296 19.8468 2.75615 19.8468ZM46.4892 18.136C46.4891 18.1157 46.4885 18.0956 46.4873 18.0757C46.4285 17.0726 47.9933 16.9346 47.9982 18.1294C48.0001 18.5461 47.6637 18.8854 47.2471 18.8871C46.822 18.8872 46.491 18.5465 46.4892 18.136ZM4.41898 17.0966C3.46056 17.0966 3.34123 15.6061 4.5056 15.5827C5.47603 15.5583 5.61129 17.0966 4.41898 17.0966ZM44.6209 17.0911H44.5197C44.103 17.0911 43.7652 16.7533 43.7652 16.3366C43.7652 15.9199 44.103 15.5821 44.5197 15.5821H44.6209C45.0376 15.5821 45.3754 15.9199 45.3754 16.3366C45.3754 16.7533 45.0376 17.0911 44.6209 17.0911ZM40.9755 17.0911H40.8742C40.4575 17.0911 40.1197 16.7533 40.1197 16.3366C40.1197 15.9199 40.4575 15.5821 40.8742 15.5821H40.9755C41.3922 15.5821 41.73 15.9199 41.73 16.3366C41.73 16.7533 41.3922 17.0911 40.9755 17.0911ZM37.33 17.0911H37.2287C36.812 17.0911 36.4742 16.7533 36.4742 16.3366C36.4742 15.9199 36.812 15.5821 37.2287 15.5821H37.33C37.7467 15.5821 38.0845 15.9199 38.0845 16.3366C38.0845 16.7533 37.7467 17.0911 37.33 17.0911ZM33.6845 17.0911H33.5832C33.1665 17.0911 32.8287 16.7533 32.8287 16.3366C32.8287 15.9199 33.1666 15.5821 33.5832 15.5821H33.6845C34.1012 15.5821 34.439 15.9199 34.439 16.3366C34.439 16.7533 34.1012 17.0911 33.6845 17.0911ZM30.0391 17.0911H29.9378C29.5211 17.0911 29.1833 16.7533 29.1833 16.3366C29.1833 15.9199 29.5211 15.5821 29.9378 15.5821H30.0391C30.4558 15.5821 30.7936 15.9199 30.7936 16.3366C30.7936 16.7533 30.4557 17.0911 30.0391 17.0911ZM26.3936 17.0911H26.2924C25.8756 17.0911 25.5379 16.7533 25.5379 16.3366C25.5379 15.9199 25.8756 15.5821 26.2924 15.5821H26.3936C26.8103 15.5821 27.1481 15.9199 27.1481 16.3366C27.1481 16.7533 26.8103 17.0911 26.3936 17.0911ZM22.7482 17.0911H22.647C22.2303 17.0911 21.8925 16.7533 21.8925 16.3366C21.8925 15.9199 22.2303 15.5821 22.647 15.5821H22.7482C23.165 15.5821 23.5028 15.9199 23.5028 16.3366C23.5028 16.7533 23.1649 17.0911 22.7482 17.0911ZM19.1027 17.0911H19.0014C18.5847 17.0911 18.2469 16.7533 18.2469 16.3366C18.2469 15.3304 19.8572 15.3273 19.8572 16.3366C19.8572 16.7534 19.5195 17.0911 19.1027 17.0911ZM15.4572 17.0911H15.3559C14.9392 17.0911 14.6014 16.7533 14.6014 16.3366C14.6014 15.9199 14.9392 15.5821 15.3559 15.5821H15.4572C15.8739 15.5821 16.2117 15.9199 16.2117 16.3366C16.2117 16.7533 15.8739 17.0911 15.4572 17.0911ZM11.8118 17.0911H11.7105C11.2938 17.0911 10.956 16.7533 10.956 16.3366C10.956 15.9199 11.2938 15.5821 11.7105 15.5821H11.8118C12.2285 15.5821 12.5663 15.9199 12.5663 16.3366C12.5663 16.7533 12.2284 17.0911 11.8118 17.0911ZM8.16622 17.0911H8.06495C7.64824 17.0911 7.31044 16.7533 7.31044 16.3366C7.31044 15.9199 7.64824 15.5821 8.06495 15.5821H8.16622C8.58293 15.5821 8.92073 15.9199 8.92073 16.3366C8.92073 16.7533 8.58303 17.0911 8.16622 17.0911Z" fill="#EAB883"/>
</g>
<defs>
<clipPath id="clip0_44_1779">
<rect width="50" height="50" fill="white"/>
</clipPath>
</defs>
</svg>
