<svg width="50" height="50" viewBox="0 0 50 50" fill="none" xmlns="http://www.w3.org/2000/svg">
<g clip-path="url(#clip0_44_2057)">
<path d="M33.7883 8.98547H29.3941V1.46645C29.3941 0.657914 28.7379 0.00170898 27.9293 0.00170898H22.0704C21.2618 0.00170898 20.6056 0.657914 20.6056 1.46645V8.98547H16.2114C14.9087 8.98547 14.2555 10.5654 15.1753 11.4863L23.9638 20.2747C24.2499 20.5609 24.6249 20.7034 24.9998 20.7034C25.3748 20.7034 25.7498 20.5609 26.0359 20.2747L34.8244 11.4863C35.7462 10.5635 35.089 8.98547 33.7883 8.98547Z" fill="#FF637B"/>
<path d="M34.8244 11.4863L26.0359 20.2747C25.7498 20.5609 25.3748 20.7034 24.9998 20.7034V0.00170898H27.9293C28.7379 0.00170898 29.3941 0.657914 29.3941 1.46645V8.98547H33.7883C35.089 8.98547 35.7462 10.5635 34.8244 11.4863Z" fill="#E63950"/>
<path d="M44.0415 30.9567V48.5336C44.0415 49.3421 43.3853 49.9983 42.5768 49.9983H7.42293C6.6144 49.9983 5.95819 49.3421 5.95819 48.5336V30.9567C5.95819 30.1481 6.6144 29.4919 7.42293 29.4919H42.5768C43.3853 29.4919 44.0415 30.1481 44.0415 30.9567Z" fill="#FDBF00"/>
<path d="M44.0415 30.9567V48.5336C44.0415 49.3421 43.3853 49.9983 42.5768 49.9983H24.9998V29.4919H42.5768C43.3853 29.4919 44.0415 30.1481 44.0415 30.9567Z" fill="#FF9100"/>
<path d="M35.253 32.4215V38.2805C35.253 39.0891 34.5968 39.7453 33.7883 39.7453H16.2114C15.4028 39.7453 14.7466 39.0891 14.7466 38.2805V32.4215C14.7466 31.613 15.4028 30.9568 16.2114 30.9568H33.7883C34.5968 30.9568 35.253 31.6129 35.253 32.4215Z" fill="#FFF7CC"/>
<path d="M35.2531 32.4215V38.2805C35.2531 39.0891 34.5969 39.7453 33.7883 39.7453H24.9998V30.9568H33.7883C34.5969 30.9568 35.2531 31.6129 35.2531 32.4215Z" fill="#FFE6B3"/>
<path d="M49.839 30.2926L43.8824 18.5747C43.6324 18.0835 43.1285 17.7739 42.5768 17.7739H7.42293C6.87121 17.7739 6.36734 18.0835 6.11736 18.5747L0.160732 30.2926C-0.333082 31.2614 0.369702 32.4214 1.46631 32.4214H48.5334C49.6251 32.4214 50.335 31.2657 49.839 30.2926Z" fill="#FFDA2D"/>
<path d="M48.5334 32.4214H24.9998V17.7739H42.5768C43.1285 17.7739 43.6324 18.0835 43.8823 18.5747L49.839 30.2926C50.3328 31.2614 49.63 32.4214 48.5334 32.4214Z" fill="#FDBF00"/>
</g>
<defs>
<clipPath id="clip0_44_2057">
<rect width="50" height="50" fill="white"/>
</clipPath>
</defs>
</svg>
