<svg width="50" height="50" viewBox="0 0 50 50" fill="none" xmlns="http://www.w3.org/2000/svg">
<path d="M15.7734 43.3477V43.4814C15.7735 43.9348 15.5934 44.3696 15.273 44.6903C14.9525 45.0109 14.5178 45.1912 14.0645 45.1914H3.27246C2.81896 45.1914 2.38404 45.0112 2.06336 44.6905C1.74269 44.3699 1.56253 43.9349 1.5625 43.4814V43.3477C1.56247 42.9319 1.71397 42.5304 1.98864 42.2184C2.26332 41.9063 2.64232 41.7051 3.05469 41.6523C3.14868 41.6673 3.2437 41.6748 3.33887 41.6748H13.9971C14.0929 41.6748 14.1886 41.6673 14.2832 41.6523C14.6952 41.7055 15.0738 41.907 15.348 42.219C15.6223 42.531 15.7735 42.9322 15.7734 43.3477Z" fill="#EDB740"/>
<path d="M15.6914 40.4343C15.5919 40.7475 15.4076 41.027 15.1591 41.2419C14.9106 41.4569 14.6074 41.5988 14.2832 41.6521C14.2107 41.6423 14.1376 41.6374 14.0644 41.6375H3.27243C3.19959 41.6374 3.12683 41.6423 3.05466 41.6521C2.61388 41.5807 2.21614 41.346 1.94063 40.9946C1.66511 40.6432 1.53202 40.2009 1.56785 39.7558C1.60368 39.3108 1.8058 38.8955 2.13397 38.5927C2.46215 38.2899 2.89231 38.1218 3.33884 38.1218H11.9638L11.9707 38.1169C12.874 39.3313 14.2031 40.1591 15.6914 40.4343Z" fill="#D8A43D"/>
<path d="M11.9668 38.1113L11.9639 38.1133H3.33887C2.86775 38.1133 2.41592 37.9261 2.08279 37.593C1.74965 37.2599 1.5625 36.808 1.5625 36.3369C1.5625 35.8658 1.74965 35.414 2.08279 35.0808C2.41592 34.7477 2.86775 34.5605 3.33887 34.5605H10.7861C10.7886 35.8401 11.2025 37.085 11.9668 38.1113Z" fill="#EDB740"/>
<path d="M14.2832 41.6521C14.1885 41.667 14.0929 41.6745 13.9971 41.6746H14.4122C14.3696 41.6658 14.3268 41.6577 14.2832 41.6521Z" fill="#C69439"/>
<path d="M3.71094 43.4812V43.3474C3.71111 42.9544 3.84676 42.5734 4.09503 42.2687C4.3433 41.964 4.68902 41.7541 5.07393 41.6746H3.33887C3.2437 41.6745 3.14868 41.667 3.05469 41.6521C2.64232 41.7048 2.26332 41.9061 1.98864 42.2181C1.71397 42.5302 1.56247 42.9317 1.5625 43.3474V43.4812C1.56253 43.9347 1.74269 44.3696 2.06336 44.6903C2.38404 45.011 2.81896 45.1911 3.27246 45.1912H5.4209C4.9674 45.1911 4.53248 45.011 4.2118 44.6903C3.89113 44.3696 3.71096 43.9347 3.71094 43.4812Z" fill="#C69439"/>
<path d="M11.9707 38.1177L11.9639 38.1226H11.9745L11.9707 38.1177Z" fill="#C69439"/>
<path d="M4.23143 41.1543C3.98295 40.9059 3.81371 40.5894 3.74512 40.2449C3.67654 39.9003 3.71169 39.5431 3.84612 39.2185C3.98056 38.8939 4.20824 38.6165 4.50038 38.4213C4.79251 38.2262 5.13596 38.122 5.48729 38.1221H3.33885C2.89251 38.1223 2.46263 38.2906 2.13469 38.5934C1.80675 38.8962 1.60479 39.3113 1.56898 39.7562C1.53317 40.2011 1.66612 40.6432 1.9414 40.9945C2.21669 41.3458 2.61412 41.5807 3.05467 41.6523C3.12685 41.6425 3.19961 41.6376 3.27245 41.6377H5.13075C4.79005 41.5683 4.4773 41.4002 4.23143 41.1543Z" fill="#C69439"/>
<path d="M14.0645 41.6377C14.1376 41.6376 14.2107 41.6425 14.2832 41.6524C14.308 41.6484 14.332 41.6426 14.3567 41.6377H14.0645Z" fill="#C69439"/>
<path d="M3.71094 36.3369C3.71087 36.1036 3.75678 35.8726 3.84602 35.6571C3.93527 35.4415 4.06612 35.2457 4.23108 35.0807C4.39604 34.9157 4.59189 34.7849 4.80744 34.6956C5.02299 34.6064 5.25401 34.5605 5.4873 34.5605H3.33887C2.86775 34.5605 2.41592 34.7477 2.08279 35.0808C1.74965 35.414 1.5625 35.8658 1.5625 36.3369C1.5625 36.808 1.74965 37.2599 2.08279 37.593C2.41592 37.9261 2.86775 38.1133 3.33887 38.1133H5.4873C5.01626 38.113 4.56459 37.9258 4.23151 37.5927C3.89843 37.2596 3.7112 36.808 3.71094 36.3369Z" fill="#C69439"/>
<path d="M32.001 43.4365V43.5703C32.001 43.7948 31.9568 44.0171 31.8708 44.2245C31.7849 44.432 31.6589 44.6204 31.5001 44.7791C31.3413 44.9378 31.1528 45.0637 30.9453 45.1495C30.7379 45.2353 30.5155 45.2794 30.291 45.2793H19.499C19.2745 45.2794 19.0522 45.2353 18.8447 45.1495C18.6373 45.0637 18.4488 44.9378 18.29 44.7791C18.1312 44.6204 18.0052 44.432 17.9193 44.2245C17.8333 44.0171 17.7891 43.7948 17.7891 43.5703V43.4365C17.7891 42.983 17.9693 42.5481 18.2899 42.2274C18.6106 41.9068 19.0455 41.7266 19.499 41.7266H30.291C30.7445 41.7266 31.1795 41.9068 31.5001 42.2274C31.8208 42.5481 32.001 42.983 32.001 43.4365Z" fill="#EDB740"/>
<path d="M32.001 25.5955V25.7283C32.001 26.1818 31.8208 26.6167 31.5001 26.9374C31.1795 27.258 30.7445 27.4382 30.291 27.4382H19.499C19.0455 27.4382 18.6106 27.258 18.2899 26.9374C17.9693 26.6167 17.7891 26.1818 17.7891 25.7283V25.5955C17.7891 25.142 17.9693 24.707 18.2899 24.3864C18.6106 24.0657 19.0455 23.8855 19.499 23.8855H30.291C30.7445 23.8855 31.1795 24.0657 31.5001 24.3864C31.8208 24.707 32.001 25.142 32.001 25.5955Z" fill="#D8A43D"/>
<path d="M31.4805 27.959C31.729 28.2074 31.8982 28.5238 31.9668 28.8684C32.0354 29.213 32.0003 29.5702 31.8658 29.8948C31.7314 30.2193 31.5037 30.4968 31.2116 30.6919C30.9194 30.8871 30.576 30.9913 30.2247 30.9912H21.6153C20.7148 29.7628 19.3801 28.9237 17.8828 28.6445C18.0024 28.2929 18.229 27.9874 18.5309 27.7711C18.8329 27.5548 19.195 27.4385 19.5664 27.4385H30.2247C30.458 27.4381 30.6891 27.4838 30.9046 27.5732C31.1202 27.6625 31.3159 27.7936 31.4805 27.959Z" fill="#EDB740"/>
<path d="M31.4805 31.5208C31.729 31.7691 31.8982 32.0856 31.9668 32.4302C32.0354 32.7748 32.0002 33.1319 31.8658 33.4565C31.7314 33.7811 31.5037 34.0586 31.2116 34.2537C30.9194 34.4489 30.576 34.553 30.2246 34.553H22.7774V34.5383C22.7795 33.2659 22.3747 32.0262 21.6221 31.0002H30.2246C30.4579 31 30.689 31.0459 30.9045 31.1352C31.12 31.2246 31.3158 31.3556 31.4805 31.5208Z" fill="#D8A43D"/>
<path d="M31.4805 35.0811C31.729 35.3294 31.8982 35.6459 31.9668 35.9905C32.0354 36.3351 32.0002 36.6922 31.8658 37.0168C31.7313 37.3414 31.5037 37.6189 31.2115 37.814C30.9194 38.0092 30.5759 38.1134 30.2246 38.1133H21.5957C21.7566 37.8965 21.9028 37.6691 22.0332 37.4326C22.0527 37.3985 22.0713 37.3643 22.0889 37.3291C22.1006 37.3086 22.1113 37.2871 22.1221 37.2666C22.1367 37.2373 22.1514 37.208 22.166 37.1778C22.2207 37.0664 22.2724 36.9531 22.3203 36.8389C22.334 36.8057 22.3476 36.7715 22.3603 36.7383C22.3701 36.7149 22.3789 36.6914 22.3867 36.669C22.4004 36.6367 22.4121 36.6045 22.4238 36.5713C22.4775 36.4209 22.5264 36.2676 22.5683 36.1113C22.5791 36.0742 22.5889 36.0371 22.5976 35.999C22.6064 35.9609 22.6172 35.9209 22.626 35.8818C22.6299 35.8672 22.6328 35.8535 22.6357 35.8399C22.6426 35.8086 22.6494 35.7774 22.6553 35.7461C22.665 35.6992 22.6738 35.6524 22.6826 35.6055C22.6914 35.5547 22.7002 35.5029 22.708 35.4512C22.7139 35.4141 22.7187 35.377 22.7236 35.3398C22.7265 35.3203 22.7295 35.3018 22.7314 35.2822C22.75 35.1338 22.7627 34.9834 22.7705 34.832C22.7724 34.7852 22.7744 34.7393 22.7754 34.6924C22.7764 34.6484 22.7773 34.6045 22.7773 34.5605H30.2246C30.4579 34.5603 30.6889 34.6062 30.9045 34.6955C31.12 34.7849 31.3157 34.9159 31.4805 35.0811Z" fill="#EDB740"/>
<path d="M31.4805 38.6431C31.729 38.8914 31.8982 39.2079 31.9668 39.5525C32.0354 39.8971 32.0003 40.2542 31.8658 40.5788C31.7314 40.9034 31.5037 41.1809 31.2116 41.376C30.9194 41.5712 30.576 41.6753 30.2247 41.6753H19.5664C19.1889 41.6753 18.8212 41.5551 18.5165 41.3321C18.2119 41.1091 17.9862 40.7949 17.8721 40.4351C17.9258 40.4263 17.9785 40.4155 18.0313 40.4038C18.0361 40.4028 18.0401 40.4019 18.044 40.4009C18.0947 40.3911 18.1445 40.3794 18.1953 40.3667L18.2207 40.3608C18.2744 40.3481 18.3272 40.3335 18.3799 40.3188C18.4365 40.3042 18.4922 40.2876 18.5479 40.27C18.6006 40.2544 18.6524 40.2368 18.7041 40.2192C18.7295 40.2114 18.7549 40.2026 18.7793 40.1929C18.8106 40.1831 18.8408 40.1724 18.8701 40.1606C18.9326 40.1372 18.9951 40.1128 19.0567 40.0874C19.1055 40.0679 19.1533 40.0474 19.2012 40.0259C19.294 39.9858 19.3858 39.9419 19.4756 39.896C19.542 39.8638 19.6074 39.8286 19.6729 39.7925C19.7168 39.7681 19.7617 39.7437 19.8047 39.7173C19.9072 39.6577 20.0078 39.5952 20.1065 39.5288C20.1348 39.5103 20.1621 39.4917 20.1895 39.4722C20.2383 39.439 20.2862 39.4048 20.333 39.3696C20.3506 39.3569 20.3682 39.3442 20.3858 39.3306C20.4317 39.2964 20.4766 39.2612 20.5215 39.2251C20.5655 39.1909 20.6084 39.1548 20.6514 39.1177C20.6522 39.1175 20.653 39.1172 20.6537 39.1167C20.6544 39.1162 20.6549 39.1155 20.6553 39.1147C20.6983 39.0796 20.7403 39.0425 20.7822 39.0044C20.8672 38.9282 20.9502 38.8501 21.0303 38.769C21.0713 38.729 21.1114 38.688 21.1494 38.646C21.1895 38.604 21.2276 38.563 21.2647 38.52C21.2959 38.4858 21.3262 38.4517 21.3555 38.4165C21.3985 38.3647 21.4424 38.312 21.4844 38.2583C21.5196 38.2153 21.5528 38.1714 21.586 38.1265C21.5869 38.1255 21.5879 38.1235 21.5889 38.1226H30.2247C30.458 38.1221 30.6891 38.1679 30.9046 38.2573C31.1202 38.3466 31.3159 38.4777 31.4805 38.6431Z" fill="#D8A43D"/>
<path d="M19.9375 43.5703V43.4365C19.9375 42.983 20.1177 42.5481 20.4384 42.2274C20.7591 41.9068 21.194 41.7266 21.6475 41.7266H19.499C19.0455 41.7266 18.6106 41.9068 18.2899 42.2274C17.9693 42.5481 17.7891 42.983 17.7891 43.4365V43.5703C17.7891 43.7948 17.8333 44.0171 17.9193 44.2245C18.0052 44.432 18.1312 44.6204 18.29 44.7791C18.4488 44.9378 18.6373 45.0637 18.8447 45.1495C19.0522 45.2353 19.2745 45.2794 19.499 45.2793H21.6475C21.423 45.2794 21.2006 45.2353 20.9932 45.1495C20.7857 45.0637 20.5972 44.9378 20.4384 44.7791C20.2796 44.6204 20.1536 44.432 20.0677 44.2245C19.9817 44.0171 19.9375 43.7948 19.9375 43.5703Z" fill="#C69439"/>
<path d="M20.0313 28.6445C20.1508 28.2929 20.3774 27.9874 20.6794 27.7711C20.9813 27.5548 21.3434 27.4385 21.7149 27.4385H19.5664C19.195 27.4385 18.8329 27.5548 18.5309 27.7711C18.229 27.9874 18.0024 28.2929 17.8828 28.6445C19.3801 28.9237 20.7148 29.7628 21.6152 30.9912H23.7637C22.8632 29.7628 21.5285 28.9237 20.0313 28.6445Z" fill="#C69439"/>
<path d="M23.7705 31.0002H21.6221C22.3747 32.0262 22.7795 33.2659 22.7774 34.5383V34.553H24.9258V34.5383C24.9279 33.2659 24.5231 32.0262 23.7705 31.0002Z" fill="#C69439"/>
<path d="M24.2373 37.3291C24.249 37.3086 24.2598 37.2871 24.2705 37.2666C24.2851 37.2373 24.2998 37.208 24.3144 37.1777C24.3691 37.0664 24.4209 36.9531 24.4687 36.8389C24.4824 36.8057 24.4961 36.7715 24.5088 36.7383C24.5185 36.7148 24.5273 36.6914 24.5351 36.6689C24.5488 36.6367 24.5605 36.6045 24.5723 36.5713C24.626 36.4209 24.6748 36.2676 24.7168 36.1113C24.7275 36.0742 24.7373 36.0371 24.7461 35.999C24.7549 35.9609 24.7656 35.9209 24.7744 35.8818C24.7783 35.8672 24.7812 35.8535 24.7842 35.8398C24.791 35.8086 24.7978 35.7773 24.8037 35.7461C24.8135 35.6992 24.8223 35.6523 24.831 35.6055C24.8398 35.5547 24.8486 35.5029 24.8564 35.4512C24.8623 35.4141 24.8672 35.377 24.8721 35.3398C24.875 35.3203 24.8779 35.3018 24.8799 35.2822C24.8984 35.1338 24.9111 34.9834 24.9189 34.832C24.9209 34.7852 24.9228 34.7393 24.9238 34.6924C24.9248 34.6484 24.9258 34.6045 24.9258 34.5605H22.7773C22.7773 34.6045 22.7764 34.6484 22.7754 34.6924C22.7744 34.7393 22.7724 34.7852 22.7705 34.832C22.7627 34.9834 22.75 35.1338 22.7314 35.2822C22.7295 35.3018 22.7265 35.3203 22.7236 35.3398C22.7187 35.377 22.7139 35.4141 22.708 35.4512C22.7002 35.5029 22.6914 35.5547 22.6826 35.6055C22.6738 35.6523 22.665 35.6992 22.6553 35.7461C22.6494 35.7773 22.6426 35.8086 22.6357 35.8398C22.6328 35.8535 22.6299 35.8672 22.626 35.8818C22.6172 35.9209 22.6074 35.96 22.5976 35.999C22.5879 36.0381 22.5791 36.0742 22.5683 36.1113C22.5264 36.2676 22.4775 36.4209 22.4238 36.5713C22.4121 36.6045 22.4004 36.6367 22.3867 36.6689C22.3789 36.6914 22.3701 36.7148 22.3603 36.7383C22.3476 36.7715 22.334 36.8057 22.3203 36.8389C22.2724 36.9531 22.2207 37.0664 22.166 37.1777C22.1514 37.208 22.1367 37.2373 22.1221 37.2666C22.1113 37.2871 22.1006 37.3086 22.0889 37.3291C22.0713 37.3643 22.0527 37.3984 22.0332 37.4326C21.9028 37.6691 21.7566 37.8965 21.5957 38.1133H23.7441C23.905 37.8965 24.0512 37.6691 24.1816 37.4326C24.2012 37.3984 24.2197 37.3643 24.2373 37.3291Z" fill="#C69439"/>
<path d="M20.0205 40.4343C20.0742 40.4255 20.127 40.4148 20.1797 40.4031C20.1846 40.4021 20.1885 40.4011 20.1924 40.4001C20.2432 40.3904 20.293 40.3787 20.3438 40.366L20.3692 40.3601C20.4229 40.3474 20.4756 40.3328 20.5283 40.3181C20.585 40.3035 20.6406 40.2869 20.6963 40.2693C20.749 40.2537 20.8008 40.2361 20.8526 40.2185C20.8779 40.2107 20.9033 40.2019 20.9278 40.1921C20.959 40.1824 20.9893 40.1716 21.0186 40.1599C21.0811 40.1365 21.1436 40.1121 21.2051 40.0867C21.2539 40.0671 21.3018 40.0466 21.3496 40.0251C21.4424 39.9851 21.5342 39.9412 21.624 39.8953C21.6904 39.863 21.7559 39.8279 21.8213 39.7917C21.8653 39.7673 21.9102 39.7429 21.9531 39.7166C22.0557 39.657 22.1563 39.5945 22.2549 39.5281C22.2832 39.5095 22.3106 39.491 22.3379 39.4714C22.3867 39.4382 22.4346 39.4041 22.4815 39.3689C22.499 39.3562 22.5166 39.3435 22.5342 39.3298C22.5801 39.2957 22.625 39.2605 22.6699 39.2244C22.7139 39.1902 22.7569 39.1541 22.7998 39.1169C22.8007 39.1168 22.8015 39.1165 22.8021 39.116C22.8028 39.1154 22.8034 39.1148 22.8037 39.114C22.8467 39.0789 22.8887 39.0417 22.9307 39.0037C23.0156 38.9275 23.0986 38.8494 23.1787 38.7683C23.2197 38.7283 23.2598 38.6873 23.2979 38.6453C23.3379 38.6033 23.376 38.5623 23.4131 38.5193C23.4444 38.4851 23.4746 38.4509 23.5039 38.4158C23.5469 38.364 23.5908 38.3113 23.6328 38.2576C23.668 38.2146 23.7012 38.1707 23.7344 38.1257C23.7354 38.1248 23.7363 38.1228 23.7373 38.1218H21.5889C21.5879 38.1228 21.5869 38.1248 21.586 38.1257C21.5527 38.1707 21.5195 38.2146 21.4844 38.2576C21.4424 38.3113 21.3985 38.364 21.3555 38.4158C21.3262 38.4509 21.2959 38.4851 21.2647 38.5193C21.2276 38.5623 21.1895 38.6033 21.1494 38.6453C21.1113 38.6873 21.0713 38.7283 21.0303 38.7683C20.9502 38.8494 20.8672 38.9275 20.7822 39.0037C20.7403 39.0417 20.6983 39.0789 20.6553 39.114C20.6549 39.1148 20.6544 39.1154 20.6537 39.116C20.653 39.1165 20.6522 39.1168 20.6514 39.1169C20.6084 39.1541 20.5654 39.1902 20.5215 39.2244C20.4766 39.2605 20.4317 39.2957 20.3858 39.3298C20.3682 39.3435 20.3506 39.3562 20.333 39.3689C20.2861 39.4041 20.2383 39.4382 20.1895 39.4714C20.1621 39.491 20.1348 39.5095 20.1065 39.5281C20.0078 39.5945 19.9072 39.657 19.8047 39.7166C19.7617 39.7429 19.7168 39.7673 19.6729 39.7917C19.6074 39.8279 19.542 39.863 19.4756 39.8953C19.3858 39.9412 19.294 39.9851 19.2012 40.0251C19.1533 40.0466 19.1055 40.0671 19.0567 40.0867C18.9951 40.1121 18.9326 40.1365 18.8701 40.1599C18.8408 40.1716 18.8106 40.1824 18.7793 40.1921C18.7549 40.2019 18.7295 40.2107 18.7041 40.2185C18.6524 40.2361 18.6006 40.2537 18.5479 40.2693C18.4922 40.2869 18.4365 40.3035 18.3799 40.3181C18.3272 40.3328 18.2744 40.3474 18.2207 40.3601L18.1953 40.366C18.1445 40.3787 18.0947 40.3904 18.044 40.4001C18.0401 40.4011 18.0361 40.4021 18.0313 40.4031C17.9785 40.4148 17.9258 40.4255 17.8721 40.4343C17.9862 40.7942 18.2119 41.1084 18.5165 41.3314C18.8212 41.5544 19.1889 41.6746 19.5664 41.6746H21.7149C21.3373 41.6746 20.9696 41.5544 20.665 41.3314C20.3603 41.1084 20.1346 40.7942 20.0205 40.4343Z" fill="#C69439"/>
<path d="M20.7188 25.7283V25.5955C20.7188 25.142 20.899 24.707 21.2196 24.3864C21.5403 24.0657 21.9752 23.8855 22.4287 23.8855H19.499C19.0455 23.8855 18.6106 24.0657 18.2899 24.3864C17.9693 24.707 17.7891 25.142 17.7891 25.5955V25.7283C17.7891 26.1818 17.9693 26.6167 18.2899 26.9374C18.6106 27.258 19.0455 27.4382 19.499 27.4382H22.4287C21.9752 27.4382 21.5403 27.258 21.2196 26.9374C20.899 26.6167 20.7188 26.1818 20.7188 25.7283Z" fill="#C69439"/>
<path d="M48.4375 43.4363V43.5701C48.4375 43.7946 48.3932 44.0169 48.3073 44.2243C48.2214 44.4317 48.0954 44.6201 47.9366 44.7789C47.7778 44.9376 47.5893 45.0634 47.3818 45.1493C47.1744 45.2351 46.952 45.2792 46.7275 45.2791H35.9355C35.4823 45.2791 35.0476 45.099 34.7271 44.7785C34.4066 44.458 34.2265 44.0233 34.2265 43.5701V43.4363C34.2266 42.9906 34.4006 42.5625 34.7117 42.2433C35.0227 41.9241 35.4461 41.7389 35.8916 41.7273C35.9062 41.7283 35.9209 41.7283 35.9355 41.7283H46.7275C46.7422 41.7283 46.7568 41.7283 46.7715 41.7273C47.2172 41.7387 47.6408 41.9238 47.952 42.243C48.2632 42.5623 48.4374 42.9904 48.4375 43.4363Z" fill="#EDB740"/>
<path d="M48.4375 39.886V40.0188C48.4374 40.4646 48.2632 40.8928 47.952 41.212C47.6408 41.5313 47.2172 41.7164 46.7715 41.7278C46.7568 41.7268 46.7422 41.7268 46.7275 41.7268H35.9355C35.9209 41.7268 35.9062 41.7268 35.8916 41.7278C35.4461 41.7161 35.0227 41.531 34.7117 41.2118C34.4006 40.8925 34.2266 40.4645 34.2265 40.0188V39.886C34.2266 39.4403 34.4006 39.0122 34.7117 38.693C35.0227 38.3738 35.4461 38.1886 35.8916 38.177C35.9062 38.178 35.9209 38.178 35.9355 38.178H46.7275C46.7422 38.178 46.7568 38.178 46.7715 38.177C47.2172 38.1884 47.6408 38.3735 47.952 38.6927C48.2632 39.012 48.4374 39.4401 48.4375 39.886Z" fill="#D8A43D"/>
<path d="M48.4375 36.3337V36.4675C48.4374 36.9134 48.2632 37.3415 47.952 37.6608C47.6408 37.98 47.2172 38.1651 46.7715 38.1765C46.7568 38.1755 46.7422 38.1755 46.7275 38.1755H35.9355C35.9209 38.1755 35.9062 38.1755 35.8916 38.1765C35.4461 38.1649 35.0227 37.9797 34.7117 37.6605C34.4006 37.3413 34.2266 36.9132 34.2265 36.4675V36.3337C34.2265 35.8843 34.4037 35.4529 34.7196 35.1332C35.0355 34.8135 35.4646 34.6312 35.914 34.6257H46.75C47.1993 34.6314 47.6284 34.8138 47.9442 35.1335C48.26 35.4531 48.4373 35.8844 48.4375 36.3337Z" fill="#EDB740"/>
<path d="M48.4375 32.7832V32.917C48.437 33.3664 48.2598 33.7976 47.944 34.1174C47.6283 34.4371 47.1993 34.6198 46.75 34.626C46.7425 34.6252 46.735 34.6248 46.7275 34.625H35.9355C35.9284 34.6248 35.9212 34.6252 35.914 34.626C35.4646 34.6202 35.0355 34.4376 34.7196 34.1177C34.4038 33.7979 34.2267 33.3665 34.2265 32.917V32.7832C34.2266 32.3375 34.4006 31.9095 34.7117 31.5902C35.0227 31.271 35.4461 31.0859 35.8916 31.0742C35.9062 31.0752 35.9209 31.0752 35.9355 31.0752H46.7275C46.7422 31.0752 46.7568 31.0752 46.7715 31.0742C47.2172 31.0857 47.6408 31.2707 47.952 31.59C48.2632 31.9092 48.4374 32.3374 48.4375 32.7832Z" fill="#D8A43D"/>
<path d="M48.4375 29.2322V29.365C48.4374 29.8108 48.2632 30.239 47.952 30.5582C47.6408 30.8775 47.2172 31.0625 46.7715 31.074C46.7568 31.073 46.7422 31.073 46.7275 31.073H35.9355C35.9209 31.073 35.9062 31.073 35.8916 31.074C35.4461 31.0623 35.0227 30.8772 34.7117 30.558C34.4006 30.2387 34.2266 29.8107 34.2265 29.365V29.2322C34.2266 28.7865 34.4006 28.3584 34.7117 28.0392C35.0227 27.72 35.4461 27.5348 35.8916 27.5232C35.9062 27.5242 35.9209 27.5242 35.9355 27.5242H46.7275C46.7422 27.5242 46.7568 27.5242 46.7715 27.5232C47.2172 27.5346 47.6408 27.7197 47.952 28.0389C48.2632 28.3582 48.4374 28.7863 48.4375 29.2322Z" fill="#EDB740"/>
<path d="M48.4375 25.6807V25.8145C48.4374 26.2603 48.2632 26.6885 47.952 27.0077C47.6408 27.327 47.2172 27.512 46.7715 27.5235C46.7568 27.5225 46.7422 27.5225 46.7275 27.5225H35.9355C35.9209 27.5225 35.9062 27.5225 35.8916 27.5235C35.4461 27.5118 35.0227 27.3267 34.7117 27.0075C34.4006 26.6882 34.2266 26.2602 34.2265 25.8145V25.6807C34.2264 25.2312 34.4034 24.7997 34.7194 24.48C35.0353 24.1602 35.4646 23.9779 35.914 23.9727H46.75C47.1993 23.9783 47.6284 24.1607 47.9442 24.4804C48.26 24.8001 48.4373 25.2313 48.4375 25.6807Z" fill="#D8A43D"/>
<path d="M48.4375 22.1296V22.2625C48.4372 22.712 48.2601 23.1434 47.9443 23.4634C47.6285 23.7834 47.1995 23.9662 46.75 23.9724C46.7425 23.9716 46.735 23.9713 46.7275 23.9714H35.9355C35.9284 23.9713 35.9212 23.9716 35.914 23.9724C35.4644 23.9666 35.0352 23.7838 34.7194 23.4638C34.4035 23.1437 34.2265 22.7121 34.2265 22.2625V22.1296C34.2266 21.684 34.4006 21.2559 34.7117 20.9367C35.0227 20.6174 35.4461 20.4323 35.8916 20.4207C35.9062 20.4216 35.9209 20.4216 35.9355 20.4216H46.7275C46.7422 20.4216 46.7568 20.4216 46.7715 20.4207C47.2172 20.4321 47.6408 20.6171 47.952 20.9364C48.2632 21.2556 48.4374 21.6838 48.4375 22.1296Z" fill="#EDB740"/>
<path d="M48.4375 18.5789V18.7117C48.4374 19.1575 48.2632 19.5857 47.952 19.9049C47.6408 20.2242 47.2172 20.4092 46.7715 20.4207C46.7568 20.4197 46.7422 20.4197 46.7275 20.4197H35.9355C35.9209 20.4197 35.9062 20.4197 35.8916 20.4207C35.4461 20.409 35.0227 20.2239 34.7117 19.9046C34.4006 19.5854 34.2266 19.1574 34.2265 18.7117V18.5789C34.2265 18.1255 34.4065 17.6907 34.727 17.37C35.0475 17.0494 35.4822 16.8691 35.9355 16.8689H46.7275C47.181 16.8689 47.6159 17.0491 47.9366 17.3698C48.2573 17.6904 48.4375 18.1254 48.4375 18.5789Z" fill="#D8A43D"/>
<path d="M46.7715 41.7273C46.7568 41.7283 46.7422 41.7283 46.7275 41.7283H46.7845C46.7801 41.7283 46.7759 41.7274 46.7715 41.7273Z" fill="#C69439"/>
<path d="M36.375 43.5701V43.4363C36.375 42.9928 36.5474 42.5668 36.8557 42.2481C37.164 41.9294 37.5841 41.743 38.0273 41.7283H35.9355C35.9209 41.7283 35.9062 41.7283 35.8916 41.7273C35.4461 41.7389 35.0227 41.9241 34.7117 42.2433C34.4006 42.5625 34.2266 42.9906 34.2265 43.4363V43.5701C34.2265 44.0233 34.4066 44.458 34.7271 44.7785C35.0476 45.099 35.4823 45.2791 35.9355 45.2791H38.084C37.6307 45.2791 37.196 45.099 36.8755 44.7785C36.555 44.458 36.375 44.0233 36.375 43.5701Z" fill="#C69439"/>
<path d="M46.7715 38.1768C46.7568 38.1777 46.7422 38.1777 46.7275 38.1777H46.7845C46.7801 38.1775 46.7759 38.1769 46.7715 38.1768Z" fill="#C69439"/>
<path d="M46.7275 41.7261C46.7422 41.7261 46.7568 41.7261 46.7715 41.7271C46.7759 41.7271 46.7801 41.7262 46.7845 41.7261H46.7275Z" fill="#C69439"/>
<path d="M36.375 40.0186V39.8857C36.375 39.4423 36.5474 39.0162 36.8557 38.6975C37.164 38.3788 37.5841 38.1924 38.0273 38.1777H35.9355C35.9209 38.1777 35.9062 38.1777 35.8916 38.1768C35.4461 38.1884 35.0227 38.3735 34.7117 38.6928C34.4006 39.012 34.2266 39.4401 34.2265 39.8857V40.0186C34.2266 40.4642 34.4006 40.8923 34.7117 41.2115C35.0227 41.5307 35.4461 41.7159 35.8916 41.7275C35.9062 41.7266 35.9209 41.7266 35.9355 41.7266H38.0273C37.5841 41.7119 37.164 41.5255 36.8557 41.2068C36.5474 40.8881 36.375 40.462 36.375 40.0186Z" fill="#C69439"/>
<path d="M36.375 36.4673V36.3335C36.375 35.884 36.5521 35.4527 36.868 35.133C37.1839 34.8132 37.6131 34.6309 38.0625 34.6255H35.914C35.4646 34.6309 35.0355 34.8132 34.7196 35.133C34.4037 35.4527 34.2265 35.884 34.2265 36.3335V36.4673C34.2266 36.913 34.4006 37.341 34.7117 37.6603C35.0227 37.9795 35.4461 38.1646 35.8916 38.1763C35.9062 38.1753 35.9209 38.1753 35.9355 38.1753H38.0273C37.5841 38.1606 37.164 37.9742 36.8557 37.6555C36.5474 37.3368 36.375 36.9107 36.375 36.4673Z" fill="#C69439"/>
<path d="M46.7275 38.1758C46.7422 38.1758 46.7568 38.1758 46.7715 38.1768C46.7759 38.1768 46.7801 38.1759 46.7845 38.1758H46.7275Z" fill="#C69439"/>
<path d="M46.7275 34.6248C46.735 34.6246 46.7425 34.625 46.75 34.6257C46.7552 34.6257 46.7598 34.6249 46.7653 34.6248H46.7275Z" fill="#C69439"/>
<path d="M46.7715 31.0742C46.7568 31.0752 46.7422 31.0752 46.7275 31.0752H46.7845C46.7801 31.075 46.7759 31.0742 46.7715 31.0742Z" fill="#C69439"/>
<path d="M36.375 32.917V32.7832C36.375 32.3398 36.5474 31.9137 36.8557 31.595C37.164 31.2763 37.5841 31.0899 38.0273 31.0752H35.9355C35.9209 31.0752 35.9062 31.0752 35.8916 31.0742C35.4461 31.0859 35.0227 31.271 34.7117 31.5902C34.4006 31.9095 34.2266 32.3375 34.2265 32.7832V32.917C34.2267 33.3665 34.4038 33.7979 34.7196 34.1177C35.0355 34.4376 35.4646 34.6202 35.914 34.626C35.9212 34.6252 35.9284 34.6248 35.9355 34.625H38.0469C37.6002 34.6153 37.1752 34.4311 36.8627 34.1119C36.5502 33.7926 36.3751 33.3637 36.375 32.917Z" fill="#C69439"/>
<path d="M46.7715 27.5232C46.7568 27.5242 46.7422 27.5242 46.7275 27.5242H46.7845C46.7801 27.5241 46.7759 27.5233 46.7715 27.5232Z" fill="#C69439"/>
<path d="M46.7275 31.073C46.7422 31.073 46.7568 31.073 46.7715 31.074C46.7759 31.074 46.7801 31.0731 46.7845 31.073H46.7275Z" fill="#C69439"/>
<path d="M36.375 29.365V29.2322C36.375 28.7887 36.5474 28.3627 36.8557 28.044C37.164 27.7253 37.5841 27.5389 38.0273 27.5242H35.9355C35.9209 27.5242 35.9062 27.5242 35.8916 27.5232C35.4461 27.5348 35.0227 27.72 34.7117 28.0392C34.4006 28.3584 34.2266 28.7865 34.2265 29.2322V29.365C34.2266 29.8107 34.4006 30.2387 34.7117 30.558C35.0227 30.8772 35.4461 31.0623 35.8916 31.074C35.9062 31.073 35.9209 31.073 35.9355 31.073H38.0273C37.5841 31.0583 37.164 30.8719 36.8557 30.5532C36.5474 30.2345 36.375 29.8084 36.375 29.365Z" fill="#C69439"/>
<path d="M36.375 25.814V25.6802C36.3748 25.2307 36.5519 24.7992 36.8678 24.4795C37.1837 24.1597 37.613 23.9774 38.0625 23.9722H35.914C35.4646 23.9774 35.0353 24.1597 34.7194 24.4795C34.4034 24.7992 34.2264 25.2307 34.2265 25.6802V25.814C34.2266 26.2597 34.4006 26.6877 34.7117 27.007C35.0227 27.3262 35.4461 27.5114 35.8916 27.523C35.9062 27.522 35.9209 27.522 35.9355 27.522H38.0273C37.5841 27.5073 37.164 27.3209 36.8557 27.0022C36.5474 26.6835 36.375 26.2574 36.375 25.814Z" fill="#C69439"/>
<path d="M46.7275 27.522C46.7422 27.522 46.7568 27.522 46.7715 27.5229C46.7759 27.5229 46.7801 27.5221 46.7845 27.522H46.7275Z" fill="#C69439"/>
<path d="M46.7275 23.9717C46.735 23.9716 46.7425 23.9719 46.75 23.9727C46.7552 23.9727 46.7598 23.9718 46.7653 23.9717H46.7275Z" fill="#C69439"/>
<path d="M46.7715 20.4211C46.7568 20.4221 46.7422 20.4221 46.7275 20.4221H46.7845C46.7801 20.422 46.7759 20.4212 46.7715 20.4211Z" fill="#C69439"/>
<path d="M36.375 22.2629V22.1301C36.375 21.6867 36.5474 21.2606 36.8557 20.9419C37.164 20.6232 37.5841 20.4368 38.0273 20.4221H35.9355C35.9209 20.4221 35.9062 20.4221 35.8916 20.4211C35.4461 20.4328 35.0227 20.6179 34.7117 20.9372C34.4006 21.2564 34.2266 21.6844 34.2265 22.1301V22.2629C34.2265 22.7126 34.4035 23.1442 34.7194 23.4642C35.0352 23.7843 35.4644 23.967 35.914 23.9729C35.9212 23.9721 35.9284 23.9718 35.9355 23.9719H38.0469C37.6001 23.9622 37.1749 23.7779 36.8623 23.4584C36.5498 23.139 36.3749 22.7098 36.375 22.2629Z" fill="#C69439"/>
<path d="M36.375 18.7117V18.5789C36.375 18.1255 36.555 17.6907 36.8754 17.37C37.1959 17.0494 37.6306 16.8691 38.084 16.8689H35.9355C35.4822 16.8691 35.0475 17.0494 34.727 17.37C34.4065 17.6907 34.2265 18.1255 34.2265 18.5789V18.7117C34.2266 19.1574 34.4006 19.5854 34.7117 19.9046C35.0227 20.2239 35.4461 20.409 35.8916 20.4207C35.9062 20.4197 35.9209 20.4197 35.9355 20.4197H38.0273C37.5841 20.405 37.164 20.2186 36.8557 19.8999C36.5474 19.5812 36.375 19.1551 36.375 18.7117Z" fill="#C69439"/>
<path d="M46.7275 20.4194C46.7422 20.4194 46.7568 20.4194 46.7715 20.4204C46.7759 20.4204 46.7801 20.4195 46.7845 20.4194H46.7275Z" fill="#C69439"/>
<path d="M45.4482 5.06616L45.1016 10.0369L40.4775 4.72046L45.4482 5.06616Z" fill="#49C160"/>
<path d="M17.8721 40.4346C17.8135 40.4463 17.7539 40.456 17.6943 40.4648C17.6729 40.4687 17.6504 40.4717 17.6279 40.4746C17.5879 40.4805 17.5479 40.4853 17.5078 40.4902C17.4649 40.4961 17.4209 40.501 17.3779 40.5049C17.3408 40.5088 17.3047 40.5117 17.2676 40.5146C17.249 40.5166 17.2295 40.5176 17.2109 40.5186C17.1777 40.5215 17.1455 40.5234 17.1123 40.5254C17.0615 40.5283 17.0108 40.5303 16.96 40.5312C16.9004 40.5332 16.8408 40.5342 16.7813 40.5342C15.8465 40.5345 14.9246 40.316 14.0893 39.8963C13.254 39.4767 12.5284 38.8674 11.9707 38.1172C11.9691 38.1155 11.9678 38.1135 11.9668 38.1113C11.2025 37.085 10.7886 35.8401 10.7861 34.5605V34.5381C10.7861 33.2744 11.1853 32.0429 11.9269 31.0197C12.6685 29.9964 13.7144 29.2336 14.9153 28.8403C16.1163 28.447 17.4108 28.4432 18.614 28.8294C19.8173 29.2157 20.8677 29.9723 21.6152 30.9912C21.6178 30.9939 21.6201 30.9968 21.6221 31C22.3747 32.0259 22.7795 33.2657 22.7774 34.5381V34.5605C22.7774 34.6045 22.7764 34.6484 22.7754 34.6924C22.7744 34.7393 22.7725 34.7861 22.7705 34.832C22.7627 34.9834 22.75 35.1338 22.7315 35.2822C22.7295 35.3018 22.7266 35.3203 22.7237 35.3398C22.7188 35.377 22.7139 35.4141 22.708 35.4512C22.7002 35.5029 22.6914 35.5547 22.6826 35.6055C22.6738 35.6523 22.6651 35.6992 22.6553 35.7461C22.6494 35.7773 22.6426 35.8086 22.6358 35.8398C22.6328 35.8535 22.6299 35.8672 22.626 35.8818C22.6172 35.9209 22.6074 35.96 22.5977 35.999C22.5889 36.0361 22.5791 36.0742 22.5684 36.1113C22.5264 36.2676 22.4776 36.4209 22.4238 36.5713C22.4121 36.6045 22.3994 36.6367 22.3867 36.6689C22.3789 36.6914 22.3701 36.7148 22.3604 36.7383C22.3477 36.7725 22.334 36.8057 22.3203 36.8389C22.2725 36.9531 22.2207 37.0664 22.166 37.1777C22.1524 37.208 22.1367 37.2373 22.1221 37.2666C22.1113 37.2871 22.1006 37.3086 22.0889 37.3291C22.0713 37.3643 22.0528 37.3984 22.0332 37.4326C21.9028 37.669 21.7566 37.8964 21.5957 38.1133C21.5931 38.116 21.5909 38.1189 21.5889 38.1221L21.586 38.126C21.5527 38.1699 21.5186 38.2139 21.4844 38.2578C21.4424 38.3115 21.3985 38.3643 21.3555 38.416C21.3252 38.4512 21.2949 38.4853 21.2647 38.5195C21.2266 38.5625 21.1885 38.6045 21.1494 38.6455C21.1104 38.6865 21.0703 38.7285 21.0303 38.7685C20.9502 38.8496 20.8672 38.9277 20.7822 39.0039C20.7402 39.041 20.6983 39.0781 20.6553 39.1143L20.6537 39.1162L20.6514 39.1172C20.6084 39.1543 20.5654 39.1904 20.5215 39.2246C20.4766 39.2607 20.4317 39.2959 20.3858 39.3301C20.3682 39.3437 20.3506 39.3564 20.333 39.3691C20.2861 39.4043 20.2383 39.4385 20.1895 39.4717C20.1621 39.4912 20.1348 39.5098 20.1065 39.5283C20.0078 39.5947 19.9072 39.6572 19.8047 39.7168C19.7608 39.7432 19.7168 39.7676 19.6729 39.792C19.6074 39.8281 19.542 39.8633 19.4756 39.8955C19.3858 39.9414 19.294 39.9844 19.2012 40.0254C19.1533 40.0469 19.1055 40.0674 19.0567 40.0869C18.9951 40.1123 18.9326 40.1367 18.8701 40.1602C18.8399 40.1709 18.8096 40.1826 18.7793 40.1924C18.7549 40.2021 18.7295 40.2109 18.7041 40.2187C18.6524 40.2363 18.6006 40.2539 18.5479 40.2695C18.4922 40.2871 18.4365 40.3027 18.3799 40.3184C18.3272 40.333 18.2744 40.3467 18.2207 40.3603L18.1953 40.3662C18.1455 40.3789 18.0947 40.3896 18.044 40.4004C18.0401 40.4014 18.0361 40.4023 18.0313 40.4033C17.9785 40.415 17.9258 40.4258 17.8721 40.4346Z" fill="#EDB740"/>
<path d="M30.291 23.2996H19.4993C18.8906 23.3002 18.3071 23.5423 17.8767 23.9728C17.4463 24.4032 17.2042 24.9868 17.2036 25.5955V25.7287C17.2036 26.0561 17.2737 26.3798 17.4094 26.6779C17.5451 26.9759 17.7431 27.2414 17.9901 27.4564C17.8134 27.6145 17.6615 27.7984 17.5397 28.0019C16.6648 27.8989 15.7781 27.973 14.9324 28.2197C14.0867 28.4664 13.2992 28.8807 12.6169 29.4379C11.9345 29.9952 11.3712 30.684 10.9605 31.4633C10.5498 32.2427 10.3 33.0967 10.2261 33.9746H3.33887C2.85771 33.9742 2.38794 34.1209 1.99248 34.395C1.59702 34.6691 1.29475 35.0575 1.12615 35.5081C0.957559 35.9588 0.930692 36.4502 1.04915 36.9165C1.16761 37.3829 1.42574 37.8019 1.78897 38.1174C1.53787 38.3353 1.33569 38.6039 1.19572 38.9055C1.05574 39.207 0.981117 39.5348 0.976754 39.8672C0.972392 40.1997 1.03839 40.5293 1.1704 40.8344C1.30242 41.1396 1.49748 41.4133 1.74277 41.6377C1.50173 41.8526 1.30885 42.1161 1.1768 42.4108C1.04475 42.7055 0.97651 43.0248 0.976564 43.3477V43.4809C0.977261 44.0896 1.21935 44.6731 1.64973 45.1034C2.08011 45.5338 2.66362 45.7759 3.27227 45.7766H14.064C14.6726 45.7759 15.2561 45.5339 15.6865 45.1035C16.1169 44.6731 16.359 44.0896 16.3597 43.4809V43.3477C16.3598 43.0251 16.2917 42.706 16.1599 42.4115C16.0281 42.117 15.8356 41.8537 15.595 41.6387C15.7727 41.4756 15.9242 41.2861 16.0442 41.0769C16.5342 41.1333 17.0289 41.1333 17.5188 41.0769C17.6495 41.3062 17.8179 41.5118 18.0169 41.6851C17.762 41.9002 17.5571 42.1683 17.4166 42.4708C17.2761 42.7733 17.2033 43.1028 17.2033 43.4363V43.5695C17.204 44.1781 17.4461 44.7617 17.8765 45.1921C18.3068 45.6225 18.8904 45.8646 19.499 45.8653H30.291C30.8997 45.8646 31.4832 45.6225 31.9136 45.1921C32.344 44.7617 32.586 44.1781 32.5867 43.5695V43.4363C32.5867 43.102 32.5136 42.7718 32.3725 42.4687C32.2314 42.1657 32.0256 41.8973 31.7697 41.6822C32.0257 41.4612 32.2311 41.1877 32.3721 40.8804C32.5131 40.573 32.5863 40.2389 32.5867 39.9007C32.5871 39.5625 32.5148 39.2282 32.3747 38.9205C32.2345 38.6127 32.0298 38.3387 31.7744 38.117C32.0294 37.8957 32.2339 37.6222 32.3741 37.3151C32.5142 37.0079 32.5867 36.6742 32.5867 36.3365C32.5867 35.9989 32.5142 35.6652 32.3741 35.358C32.2339 35.0508 32.0294 34.7773 31.7744 34.556C32.0294 34.3347 32.2339 34.0612 32.3741 33.754C32.5142 33.4469 32.5867 33.1132 32.5867 32.7755C32.5867 32.4379 32.5142 32.1042 32.3741 31.797C32.2339 31.4899 32.0294 31.2164 31.7744 30.9951C32.0273 30.7756 32.2305 30.5048 32.3705 30.2007C32.5106 29.8966 32.5842 29.5662 32.5867 29.2314C32.5891 28.8966 32.5202 28.5652 32.3845 28.2591C32.2489 27.953 32.0496 27.6793 31.8 27.4562C32.0471 27.2412 32.2451 26.9757 32.3808 26.6776C32.5166 26.3795 32.5868 26.0558 32.5867 25.7283V25.5955C32.5861 24.9868 32.344 24.4032 31.9136 23.9728C31.4833 23.5423 30.8997 23.3002 30.291 23.2996ZM19.5659 28.0243H30.2246C30.5385 28.0271 30.8385 28.1538 31.0595 28.3767C31.2804 28.5997 31.4044 28.9009 31.4044 29.2147C31.4044 29.5286 31.2804 29.8298 31.0595 30.0528C30.8385 30.2757 30.5385 30.4024 30.2246 30.4052H21.8983C21.0995 29.4169 20.0325 28.68 18.8253 28.2832C19.0358 28.1156 19.2969 28.0243 19.5659 28.0243ZM23.3338 35.1462H30.2246C30.5385 35.1491 30.8385 35.2758 31.0595 35.4987C31.2804 35.7217 31.4044 36.0228 31.4044 36.3367C31.4044 36.6506 31.2804 36.9518 31.0595 37.1747C30.8385 37.3977 30.5385 37.5244 30.2246 37.5272H22.642C23.0226 36.7851 23.2575 35.9768 23.3338 35.1462ZM22.6606 31.5853H30.2246C30.5403 31.5853 30.8431 31.7107 31.0664 31.934C31.2896 32.1572 31.415 32.46 31.415 32.7757C31.415 33.0915 31.2896 33.3942 31.0664 33.6175C30.8431 33.8407 30.5403 33.9662 30.2246 33.9662H23.3365C23.2651 33.1367 23.0357 32.3286 22.6606 31.5853ZM3.33887 35.1462H10.2295C10.3059 35.9768 10.5407 36.785 10.9213 37.5272H3.33887C3.025 37.5244 2.72496 37.3977 2.50402 37.1747C2.28308 36.9518 2.15912 36.6506 2.15912 36.3367C2.15912 36.0228 2.28308 35.7217 2.50402 35.4987C2.72496 35.2758 3.025 35.1491 3.33887 35.1462ZM15.1878 43.3477V43.4809C15.1875 43.7789 15.069 44.0645 14.8583 44.2752C14.6476 44.4859 14.3619 44.6044 14.064 44.6047H3.27227C2.97431 44.6044 2.68866 44.4859 2.47797 44.2752C2.26729 44.0645 2.14877 43.7789 2.14844 43.4809V43.3477C2.14885 43.0858 2.24064 42.8322 2.40798 42.6306C2.57532 42.4291 2.80773 42.2923 3.06514 42.2437C3.15589 42.2544 3.24719 42.2599 3.33857 42.2601H13.9974C14.0875 42.2595 14.1776 42.2539 14.2671 42.2431C14.5254 42.2908 14.7588 42.4274 14.927 42.6291C15.0951 42.8309 15.1874 43.0851 15.1878 43.3477ZM14.2522 41.0602C14.19 41.0552 14.1274 41.0519 14.064 41.0519H3.27227C3.20908 41.0519 3.14658 41.0551 3.08457 41.0602C2.79774 40.9976 2.54415 40.8313 2.37255 40.5931C2.20095 40.3548 2.12346 40.0616 2.15495 39.7697C2.18645 39.4778 2.32472 39.2079 2.54319 39.0118C2.76165 38.8157 3.0449 38.7072 3.33848 38.7073H11.6931C12.4965 39.6871 13.5649 40.415 14.7707 40.8042C14.6217 40.9311 14.4436 41.019 14.2522 41.0602ZM11.3722 34.5381C11.3721 33.4682 11.6894 32.4224 12.2838 31.5328C12.8782 30.6432 13.723 29.9498 14.7115 29.5404C15.6999 29.1309 16.7876 29.0238 17.8369 29.2325C18.8863 29.4412 19.8501 29.9564 20.6067 30.7129C21.3632 31.4695 21.8784 32.4333 22.0872 33.4827C22.2959 34.532 22.1888 35.6197 21.7793 36.6081C21.3699 37.5966 20.6766 38.4414 19.787 39.0358C18.8974 39.6302 17.8515 39.9475 16.7816 39.9475C15.3475 39.9459 13.9725 39.3755 12.9584 38.3614C11.9443 37.3473 11.3738 35.9723 11.3722 34.5381ZM21.8702 38.7073H30.2246C30.5385 38.7101 30.8385 38.8368 31.0595 39.0597C31.2804 39.2827 31.4044 39.5839 31.4044 39.8978C31.4044 40.2116 31.2804 40.5128 31.0595 40.7358C30.8385 40.9587 30.5385 41.0854 30.2246 41.0882H19.5659C19.2823 41.089 19.0079 40.9883 18.7921 40.8043C19.9979 40.415 21.0667 39.6871 21.8702 38.7073ZM31.4152 43.5697C31.4149 43.8677 31.2964 44.1533 31.0857 44.364C30.875 44.5747 30.5894 44.6933 30.2914 44.6936H19.4993C19.2014 44.6932 18.9157 44.5747 18.705 44.364C18.4943 44.1533 18.3758 43.8676 18.3755 43.5697V43.4365C18.3758 43.1385 18.4943 42.8529 18.705 42.6422C18.9157 42.4315 19.2014 42.313 19.4993 42.3126H30.291C30.589 42.313 30.8746 42.4315 31.0853 42.6422C31.296 42.8528 31.4145 43.1385 31.4148 43.4365L31.4152 43.5697ZM19.5659 26.8524H19.4993C19.2014 26.852 18.9157 26.7335 18.705 26.5228C18.4943 26.3121 18.3758 26.0264 18.3755 25.7285V25.5955C18.3758 25.2975 18.4943 25.0118 18.705 24.8012C18.9157 24.5905 19.2014 24.472 19.4993 24.4716H30.291C30.589 24.4719 30.8746 24.5904 31.0853 24.8011C31.296 25.0118 31.4145 25.2975 31.4148 25.5955V25.7287C31.4145 26.0266 31.296 26.3123 31.0853 26.523C30.8747 26.7337 30.589 26.8523 30.291 26.8526L19.5659 26.8524Z" fill="white"/>
<path d="M16.7816 31.6956C17.0757 31.696 17.3576 31.813 17.5654 32.0209C17.7733 32.2288 17.8903 32.5107 17.8906 32.8048C17.8906 32.9602 17.9524 33.1092 18.0622 33.2191C18.1721 33.329 18.3212 33.3907 18.4766 33.3907C18.632 33.3907 18.781 33.329 18.8909 33.2191C19.0008 33.1092 19.0625 32.9602 19.0625 32.8048C19.0618 32.302 18.8953 31.8135 18.5888 31.415C18.2824 31.0164 17.853 30.7301 17.3673 30.6003V30.1782C17.3673 30.0228 17.3055 29.8738 17.1957 29.7639C17.0858 29.654 16.9367 29.5923 16.7813 29.5923C16.6259 29.5923 16.4769 29.654 16.367 29.7639C16.2571 29.8738 16.1954 30.0228 16.1954 30.1782V30.6003C15.6602 30.7426 15.195 31.0747 14.8867 31.5347C14.5783 31.9947 14.4479 32.5511 14.5196 33.1002C14.5913 33.6494 14.8604 34.1536 15.2765 34.519C15.6927 34.8843 16.2276 35.0858 16.7813 35.0858C17.074 35.0865 17.3546 35.2027 17.5619 35.4093C17.7691 35.6159 17.8864 35.8961 17.888 36.1887C17.8896 36.4814 17.7755 36.7628 17.5705 36.9717C17.3654 37.1805 17.0862 37.2999 16.7936 37.3037C16.7894 37.3037 16.7854 37.303 16.7813 37.303C16.7772 37.303 16.7732 37.3036 16.7691 37.3037C16.4773 37.3002 16.1985 37.182 15.9932 36.9745C15.7879 36.767 15.6726 36.487 15.6722 36.1951C15.6722 36.0397 15.6104 35.8907 15.5005 35.7808C15.3907 35.6709 15.2416 35.6092 15.0862 35.6092C14.9308 35.6092 14.7818 35.6709 14.6719 35.7808C14.562 35.8907 14.5003 36.0397 14.5003 36.1951C14.501 36.6978 14.6675 37.1863 14.9739 37.5848C15.2804 37.9834 15.7097 38.2697 16.1954 38.3995V38.8987C16.1954 39.0541 16.2571 39.2032 16.367 39.313C16.4769 39.4229 16.6259 39.4847 16.7813 39.4847C16.9367 39.4847 17.0858 39.4229 17.1957 39.313C17.3055 39.2032 17.3673 39.0541 17.3673 38.8987V38.3995C17.9025 38.2572 18.3676 37.9251 18.676 37.4651C18.9843 37.0051 19.1148 36.4487 19.0431 35.8996C18.9714 35.3504 18.7023 34.8462 18.2862 34.4808C17.87 34.1155 17.3351 33.914 16.7813 33.914C16.4872 33.914 16.205 33.7971 15.997 33.5891C15.789 33.3811 15.6722 33.099 15.6722 32.8048C15.6722 32.5106 15.789 32.2285 15.997 32.0205C16.205 31.8125 16.4872 31.6956 16.7813 31.6956H16.7816Z" fill="#284268"/>
<path d="M49.0235 18.712V18.5788C49.0228 17.9701 48.7807 17.3866 48.3503 16.9562C47.9199 16.5258 47.3364 16.2837 46.7278 16.283H35.9361C35.3274 16.2837 34.7439 16.5258 34.3135 16.9562C33.8831 17.3866 33.641 17.9701 33.6404 18.5788V18.712C33.6403 19.0346 33.7083 19.3537 33.8402 19.6482C33.972 19.9427 34.1645 20.206 34.4052 20.4209C34.1645 20.6358 33.9719 20.8992 33.8401 21.1937C33.7083 21.4882 33.6402 21.8073 33.6404 22.1299V22.2632C33.6402 22.5859 33.7083 22.9049 33.8401 23.1994C33.9719 23.494 34.1644 23.7573 34.4051 23.9722C34.1644 24.1871 33.9719 24.4505 33.8401 24.745C33.7083 25.0395 33.6403 25.3585 33.6404 25.6812V25.8144C33.6403 26.1371 33.7083 26.4561 33.8401 26.7506C33.972 27.0451 34.1645 27.3085 34.4052 27.5234C34.1645 27.7383 33.972 28.0016 33.8401 28.2961C33.7083 28.5907 33.6403 28.9097 33.6404 29.2324V29.3652C33.6402 29.6879 33.7083 30.0069 33.8401 30.3014C33.9719 30.5959 34.1645 30.8593 34.4052 31.0742C34.1645 31.2891 33.972 31.5524 33.8402 31.8469C33.7083 32.1414 33.6403 32.4605 33.6404 32.7832V32.9164C33.6402 33.239 33.7083 33.5581 33.8401 33.8526C33.9719 34.1471 34.1645 34.4104 34.4052 34.6253C34.1645 34.8402 33.9719 35.1036 33.8401 35.3981C33.7083 35.6926 33.6402 36.0117 33.6404 36.3343V36.4676C33.6403 36.7903 33.7083 37.1093 33.8402 37.4039C33.972 37.6984 34.1645 37.9617 34.4052 38.1766C34.1645 38.3915 33.9719 38.6548 33.8401 38.9494C33.7083 39.2439 33.6402 39.5629 33.6404 39.8856V40.0188C33.6402 40.3415 33.7083 40.6605 33.8401 40.955C33.9719 41.2495 34.1645 41.5129 34.4052 41.7278C34.1645 41.9427 33.972 42.206 33.8402 42.5005C33.7083 42.7951 33.6403 43.1141 33.6404 43.4368V43.57C33.641 44.1786 33.8831 44.7622 34.3135 45.1926C34.7439 45.623 35.3274 45.8651 35.9361 45.8658H46.7278C47.3364 45.8651 47.92 45.623 48.3504 45.1925C48.7807 44.7621 49.0228 44.1786 49.0235 43.5699V43.4367C49.0235 43.114 48.9554 42.795 48.8236 42.5004C48.6918 42.2059 48.4992 41.9426 48.2585 41.7277C48.4992 41.5128 48.6918 41.2495 48.8236 40.9549C48.9555 40.6604 49.0236 40.3414 49.0235 40.0187V39.8855C49.0235 39.5628 48.9555 39.2438 48.8237 38.9493C48.6918 38.6548 48.4993 38.3914 48.2586 38.1765C48.4993 37.9616 48.6918 37.6982 48.8236 37.4037C48.9554 37.1092 49.0235 36.7902 49.0235 36.4675V36.3342C49.0236 36.0116 48.9555 35.6925 48.8236 35.398C48.6918 35.1035 48.4992 34.8401 48.2585 34.6252C48.4992 34.4104 48.6918 34.147 48.8236 33.8525C48.9555 33.558 49.0236 33.2389 49.0235 32.9163V32.7832C49.0235 32.4605 48.9554 32.1415 48.8236 31.8469C48.6918 31.5524 48.4993 31.2891 48.2586 31.0742C48.4993 30.8593 48.6918 30.5959 48.8237 30.3014C48.9555 30.0069 49.0236 29.6879 49.0235 29.3652V29.232C49.0235 28.9093 48.9554 28.5903 48.8236 28.2958C48.6918 28.0013 48.4993 27.7379 48.2586 27.523C48.4993 27.3081 48.6918 27.0447 48.8236 26.7502C48.9554 26.4557 49.0235 26.1367 49.0235 25.814V25.6808C49.0235 25.3581 48.9554 25.0391 48.8236 24.7446C48.6918 24.4501 48.4993 24.1867 48.2586 23.9718C48.4993 23.7569 48.6918 23.4936 48.8237 23.1991C48.9555 22.9045 49.0236 22.5855 49.0235 22.2628V22.1298C49.0236 21.8072 48.9555 21.4881 48.8237 21.1936C48.6918 20.8991 48.4993 20.6358 48.2586 20.4208C48.4993 20.2059 48.6918 19.9426 48.8236 19.6481C48.9554 19.3536 49.0235 19.0346 49.0235 18.712ZM47.8516 43.4367V43.5699C47.8512 43.8678 47.7327 44.1535 47.5221 44.3642C47.3114 44.5749 47.0257 44.6934 46.7278 44.6938H35.9361C35.6381 44.6935 35.3524 44.5749 35.1417 44.3642C34.931 44.1535 34.8125 43.8678 34.8122 43.5699V43.4367C34.8126 43.1425 34.9282 42.8601 35.1343 42.6501C35.3404 42.4402 35.6206 42.3194 35.9148 42.3136C35.9219 42.3136 35.9289 42.3142 35.9361 42.3142H46.7278C46.7349 42.3142 46.7419 42.3142 46.749 42.3136C47.0432 42.3194 47.3234 42.4402 47.5295 42.6502C47.7356 42.8601 47.8512 43.1425 47.8516 43.4367ZM47.8516 39.8856V40.0188C47.8512 40.313 47.7356 40.5954 47.5295 40.8053C47.3234 41.0153 47.0432 41.1361 46.749 41.1418C46.7419 41.1418 46.7349 41.1413 46.7278 41.1413H35.9361C35.9289 41.1413 35.9219 41.1413 35.9148 41.1418C35.6206 41.1361 35.3404 41.0153 35.1343 40.8053C34.9282 40.5954 34.8126 40.313 34.8122 40.0188V39.8856C34.8125 39.5916 34.928 39.3094 35.1338 39.0995C35.3397 38.8896 35.6196 38.7686 35.9135 38.7625C35.921 38.7625 35.9284 38.7631 35.9361 38.7631H46.7278C46.7353 38.7631 46.7428 38.7625 46.7503 38.7625C47.0442 38.7686 47.3241 38.8896 47.5299 39.0995C47.7358 39.3094 47.8512 39.5916 47.8516 39.8856ZM47.8516 36.3343V36.4676C47.8512 36.7616 47.7357 37.0438 47.5299 37.2537C47.3241 37.4636 47.0442 37.5845 46.7503 37.5907C46.7428 37.5907 46.7353 37.5901 46.7278 37.5901H35.9361C35.9284 37.5901 35.921 37.5901 35.9135 37.5907C35.6196 37.5846 35.3397 37.4636 35.1339 37.2537C34.928 37.0438 34.8126 36.7616 34.8122 36.4676V36.3343C34.8125 36.0401 34.9281 35.7577 35.1343 35.5478C35.3404 35.3378 35.6206 35.217 35.9148 35.2113H35.9361H46.7278H46.749C47.0432 35.217 47.3234 35.3378 47.5295 35.5478C47.7356 35.7577 47.8513 36.0401 47.8516 36.3343ZM47.8516 32.7833V32.9165C47.8512 33.2107 47.7356 33.493 47.5295 33.703C47.3234 33.9129 47.0432 34.0337 46.749 34.0395C46.7419 34.0395 46.7349 34.0395 46.7278 34.0395H35.9361C35.9289 34.0395 35.9219 34.0395 35.9148 34.0395C35.6206 34.0338 35.3404 33.9129 35.1343 33.703C34.9282 33.493 34.8126 33.2107 34.8122 32.9165V32.7832C34.8126 32.4892 34.928 32.207 35.1339 31.9971C35.3397 31.7872 35.6196 31.6662 35.9135 31.6601C35.921 31.6601 35.9284 31.6607 35.9361 31.6607H46.7278C46.7353 31.6607 46.7428 31.6607 46.7503 31.6601C47.0442 31.6662 47.3241 31.7872 47.5299 31.9971C47.7357 32.207 47.8512 32.4892 47.8516 32.7832V32.7833ZM47.8516 29.2322V29.3652C47.8513 29.6592 47.7358 29.9414 47.53 30.1513C47.3241 30.3612 47.0443 30.4822 46.7503 30.4882C46.7428 30.4882 46.7353 30.4876 46.7278 30.4876H35.9361C35.9284 30.4876 35.921 30.4882 35.9135 30.4882C35.6196 30.4822 35.3397 30.3612 35.1338 30.1513C34.928 29.9414 34.8125 29.6592 34.8122 29.3652V29.232C34.8125 28.938 34.928 28.6558 35.1338 28.4459C35.3397 28.236 35.6196 28.115 35.9135 28.1089C35.921 28.1089 35.9284 28.1095 35.9361 28.1095H46.7278C46.7353 28.1095 46.7428 28.1095 46.7503 28.1089C47.0443 28.115 47.3242 28.236 47.53 28.446C47.7359 28.6559 47.8513 28.9382 47.8516 29.2322ZM47.8516 25.681V25.8142C47.8512 26.1082 47.7357 26.3904 47.5299 26.6003C47.3241 26.8102 47.0442 26.9311 46.7503 26.9373C46.7428 26.9373 46.7353 26.9367 46.7278 26.9367H35.9361C35.9284 26.9367 35.921 26.9367 35.9135 26.9373C35.6196 26.9312 35.3397 26.8102 35.1339 26.6003C34.928 26.3904 34.8126 26.1082 34.8122 25.8142V25.681C34.8125 25.387 34.928 25.1048 35.1338 24.8949C35.3397 24.685 35.6196 24.564 35.9135 24.558C35.921 24.558 35.9284 24.5585 35.9361 24.5585H46.7278C46.7353 24.5585 46.7428 24.5585 46.7503 24.558C47.0442 24.5641 47.3241 24.685 47.5299 24.8949C47.7358 25.1048 47.8512 25.387 47.8516 25.681ZM47.8516 22.1298V22.2631C47.8512 22.5571 47.7358 22.8393 47.5299 23.0492C47.3241 23.2591 47.0442 23.3801 46.7503 23.3862C46.7428 23.3862 46.7353 23.3856 46.7278 23.3856H35.9361C35.9284 23.3856 35.921 23.3856 35.9135 23.3862C35.6196 23.3801 35.3397 23.2592 35.1338 23.0492C34.928 22.8393 34.8125 22.5571 34.8122 22.2631V22.1298C34.8125 21.8357 34.9281 21.5535 35.1341 21.3435C35.34 21.1336 35.62 21.0127 35.9141 21.0068H35.9361H46.7278H46.7497C47.0438 21.0127 47.3238 21.1336 47.5298 21.3435C47.7357 21.5535 47.8513 21.8357 47.8516 22.1298ZM46.7278 19.8339H35.9361C35.9286 19.8339 35.9214 19.8339 35.9141 19.8345C35.62 19.8286 35.34 19.7077 35.1341 19.4978C34.9281 19.2878 34.8126 19.0056 34.8122 18.7115V18.5783C34.8125 18.2803 34.931 17.9946 35.1417 17.7839C35.3524 17.5732 35.6381 17.4547 35.9361 17.4543H46.7278C47.0258 17.4547 47.3115 17.5733 47.5222 17.7841C47.7329 17.9949 47.8514 18.2807 47.8516 18.5788V18.712C47.8512 19.0061 47.7357 19.2883 47.5297 19.4982C47.3238 19.7082 47.0438 19.8291 46.7497 19.835C46.7423 19.8346 46.7351 19.8339 46.7278 19.8339Z" fill="white"/>
<path d="M5.7873 24.2953C5.9098 24.2954 6.02922 24.2569 6.12861 24.1853L22.7584 12.2427L28.2683 18.7644C28.3656 18.8796 28.5037 18.9529 28.6538 18.9689C28.8038 18.9849 28.9542 18.9424 29.0737 18.8502L42.7902 8.27247L44.6599 10.4224C44.7359 10.5098 44.8362 10.5728 44.948 10.6032C45.0598 10.6337 45.1781 10.6303 45.288 10.5935C45.3979 10.5567 45.4944 10.4881 45.5654 10.3965C45.6363 10.3049 45.6785 10.1942 45.6865 10.0786L46.0331 5.10792C46.0438 4.95294 45.9926 4.80004 45.8906 4.68284C45.7887 4.56564 45.6443 4.49373 45.4894 4.48292L40.5187 4.13643C40.403 4.12836 40.2876 4.15476 40.187 4.21228C40.0864 4.26981 40.0051 4.35588 39.9534 4.45961C39.9017 4.56333 39.882 4.68006 39.8966 4.79503C39.9113 4.90999 39.9597 5.01803 40.0357 5.10548L42.0199 7.38702L28.8019 17.5801L23.3038 11.0727C23.2086 10.9601 23.0745 10.8875 22.9282 10.8694C22.7819 10.8513 22.6342 10.889 22.5145 10.975L5.44501 23.2334C5.34423 23.3058 5.26901 23.4082 5.2302 23.5261C5.19139 23.6439 5.19098 23.7711 5.22905 23.8891C5.26711 24.0072 5.34167 24.1102 5.442 24.1832C5.54232 24.2562 5.66323 24.2954 5.7873 24.2953ZM44.8233 5.61085L44.6159 8.58594L41.8481 5.40342L44.8233 5.61085Z" fill="white"/>
</svg>
