<svg width="101" height="37" viewBox="0 0 101 37" fill="none" xmlns="http://www.w3.org/2000/svg">
<path d="M0.32 28V-1.90735e-06H6.8V22.72H20.84V28H0.32ZM34.1825 28.32C31.8892 28.32 29.8492 27.84 28.0625 26.88C26.3025 25.92 24.9025 24.6133 23.8625 22.96C22.8492 21.28 22.3425 19.3733 22.3425 17.24C22.3425 15.08 22.8492 13.1733 23.8625 11.52C24.9025 9.84 26.3025 8.53333 28.0625 7.6C29.8492 6.64 31.8892 6.16 34.1825 6.16C36.4492 6.16 38.4758 6.64 40.2625 7.6C42.0492 8.53333 43.4492 9.82667 44.4625 11.48C45.4758 13.1333 45.9825 15.0533 45.9825 17.24C45.9825 19.3733 45.4758 21.28 44.4625 22.96C43.4492 24.6133 42.0492 25.92 40.2625 26.88C38.4758 27.84 36.4492 28.32 34.1825 28.32ZM34.1825 23.2C35.2225 23.2 36.1558 22.96 36.9825 22.48C37.8092 22 38.4625 21.32 38.9425 20.44C39.4225 19.5333 39.6625 18.4667 39.6625 17.24C39.6625 15.9867 39.4225 14.92 38.9425 14.04C38.4625 13.16 37.8092 12.48 36.9825 12C36.1558 11.52 35.2225 11.28 34.1825 11.28C33.1425 11.28 32.2092 11.52 31.3825 12C30.5558 12.48 29.8892 13.16 29.3825 14.04C28.9025 14.92 28.6625 15.9867 28.6625 17.24C28.6625 18.4667 28.9025 19.5333 29.3825 20.44C29.8892 21.32 30.5558 22 31.3825 22.48C32.2092 22.96 33.1425 23.2 34.1825 23.2ZM60.2734 36.08C58.2468 36.08 56.2868 35.8267 54.3934 35.32C52.5268 34.84 50.9668 34.1067 49.7134 33.12L52.1934 28.64C53.1001 29.3867 54.2468 29.9733 55.6334 30.4C57.0468 30.8533 58.4334 31.08 59.7934 31.08C62.0068 31.08 63.6068 30.5867 64.5934 29.6C65.6068 28.6133 66.1134 27.1467 66.1134 25.2V21.96L66.5134 16.56L66.4334 11.12V6.48H72.3534V24.4C72.3534 28.4 71.3134 31.3467 69.2334 33.24C67.1534 35.1333 64.1668 36.08 60.2734 36.08ZM59.3134 26.96C57.3134 26.96 55.5001 26.5333 53.8734 25.68C52.2734 24.8 50.9801 23.5867 49.9934 22.04C49.0334 20.4667 48.5534 18.64 48.5534 16.56C48.5534 14.4533 49.0334 12.6267 49.9934 11.08C50.9801 9.50667 52.2734 8.29333 53.8734 7.44C55.5001 6.58667 57.3134 6.16 59.3134 6.16C61.1268 6.16 62.7268 6.53333 64.1134 7.28C65.5001 8 66.5801 9.13333 67.3534 10.68C68.1268 12.2 68.5134 14.16 68.5134 16.56C68.5134 18.9333 68.1268 20.8933 67.3534 22.44C66.5801 23.96 65.5001 25.0933 64.1134 25.84C62.7268 26.5867 61.1268 26.96 59.3134 26.96ZM60.5534 21.84C61.6468 21.84 62.6201 21.6267 63.4734 21.2C64.3268 20.7467 64.9934 20.12 65.4734 19.32C65.9534 18.52 66.1934 17.6 66.1934 16.56C66.1934 15.4933 65.9534 14.5733 65.4734 13.8C64.9934 13 64.3268 12.3867 63.4734 11.96C62.6201 11.5067 61.6468 11.28 60.5534 11.28C59.4601 11.28 58.4868 11.5067 57.6334 11.96C56.7801 12.3867 56.1001 13 55.5934 13.8C55.1134 14.5733 54.8734 15.4933 54.8734 16.56C54.8734 17.6 55.1134 18.52 55.5934 19.32C56.1001 20.12 56.7801 20.7467 57.6334 21.2C58.4868 21.6267 59.4601 21.84 60.5534 21.84ZM88.4013 28.32C86.1079 28.32 84.0679 27.84 82.2813 26.88C80.5213 25.92 79.1213 24.6133 78.0813 22.96C77.0679 21.28 76.5613 19.3733 76.5613 17.24C76.5613 15.08 77.0679 13.1733 78.0813 11.52C79.1213 9.84 80.5213 8.53333 82.2813 7.6C84.0679 6.64 86.1079 6.16 88.4013 6.16C90.6679 6.16 92.6946 6.64 94.4813 7.6C96.2679 8.53333 97.6679 9.82667 98.6813 11.48C99.6946 13.1333 100.201 15.0533 100.201 17.24C100.201 19.3733 99.6946 21.28 98.6813 22.96C97.6679 24.6133 96.2679 25.92 94.4813 26.88C92.6946 27.84 90.6679 28.32 88.4013 28.32ZM88.4013 23.2C89.4413 23.2 90.3746 22.96 91.2013 22.48C92.0279 22 92.6813 21.32 93.1613 20.44C93.6413 19.5333 93.8813 18.4667 93.8813 17.24C93.8813 15.9867 93.6413 14.92 93.1613 14.04C92.6813 13.16 92.0279 12.48 91.2013 12C90.3746 11.52 89.4413 11.28 88.4013 11.28C87.3613 11.28 86.4279 11.52 85.6013 12C84.7746 12.48 84.1079 13.16 83.6013 14.04C83.1213 14.92 82.8813 15.9867 82.8813 17.24C82.8813 18.4667 83.1213 19.5333 83.6013 20.44C84.1079 21.32 84.7746 22 85.6013 22.48C86.4279 22.96 87.3613 23.2 88.4013 23.2Z" fill="#FF014F"/>
</svg>
