<svg width="15" height="15" viewBox="0 0 15 15" fill="none" xmlns="http://www.w3.org/2000/svg">
<g clip-path="url(#clip0_48_2808)">
<path d="M13.8964 2.49996C13.8964 3.62183 12.9871 4.53129 11.8652 4.53129C10.7434 4.53129 9.83401 3.62183 9.83401 2.49996C9.83401 1.37821 10.7434 0.46875 11.8652 0.46875C12.9871 0.46875 13.8964 1.37821 13.8964 2.49996Z" fill="#08E145"/>
<path d="M11.8652 5.00004C10.4864 5.00004 9.36526 3.87875 9.36526 2.49996C9.36526 1.12129 10.4864 0 11.8652 0C13.244 0 14.3652 1.12129 14.3652 2.49996C14.3652 3.87875 13.244 5.00004 11.8652 5.00004ZM11.8652 0.9375C11.0034 0.9375 10.3028 1.63879 10.3028 2.49996C10.3028 3.36124 11.0034 4.06254 11.8652 4.06254C12.7271 4.06254 13.4277 3.36124 13.4277 2.49996C13.4277 1.63879 12.7271 0.9375 11.8652 0.9375Z" fill="#08E145"/>
<path d="M13.8964 12.5001C13.8964 13.6218 12.9871 14.5313 11.8652 14.5313C10.7434 14.5313 9.83401 13.6218 9.83401 12.5001C9.83401 11.3782 10.7434 10.4688 11.8652 10.4688C12.9871 10.4688 13.8964 11.3782 13.8964 12.5001Z" fill="#08E145"/>
<path d="M11.8652 15C10.4864 15 9.36526 13.8787 9.36526 12.5001C9.36526 11.1213 10.4864 10 11.8652 10C13.244 10 14.3652 11.1213 14.3652 12.5001C14.3652 13.8787 13.244 15 11.8652 15ZM11.8652 10.9375C11.0034 10.9375 10.3028 11.6388 10.3028 12.5001C10.3028 13.3612 11.0034 14.0625 11.8652 14.0625C12.7271 14.0625 13.4277 13.3612 13.4277 12.5001C13.4277 11.6388 12.7271 10.9375 11.8652 10.9375Z" fill="#08E145"/>
<path d="M5.14652 7.49996C5.14652 8.62182 4.23706 9.53117 3.1152 9.53117C1.99345 9.53117 1.08398 8.62182 1.08398 7.49996C1.08398 6.3781 1.99345 5.46875 3.1152 5.46875C4.23706 5.46875 5.14652 6.3781 5.14652 7.49996Z" fill="#08E145"/>
<path d="M3.1152 9.99992C1.73653 9.99992 0.615234 8.87874 0.615234 7.49996C0.615234 6.12118 1.73653 5 3.1152 5C4.49398 5 5.61527 6.12118 5.61527 7.49996C5.61527 8.87874 4.49398 9.99992 3.1152 9.99992ZM3.1152 5.9375C2.25334 5.9375 1.55273 6.63868 1.55273 7.49996C1.55273 8.36124 2.25334 9.06242 3.1152 9.06242C3.97717 9.06242 4.67777 8.36124 4.67777 7.49996C4.67777 6.63868 3.97717 5.9375 3.1152 5.9375Z" fill="#08E145"/>
<path d="M4.59092 7.19962C4.37337 7.19962 4.16211 7.08644 4.0471 6.88399C3.87647 6.58462 3.98153 6.20273 4.2809 6.03141L10.0802 2.72521C10.3796 2.55332 10.7615 2.65838 10.9328 2.9589C11.1034 3.25828 10.9984 3.64017 10.699 3.81148L4.89957 7.11768C4.80207 7.1733 4.69587 7.19962 4.59092 7.19962Z" fill="#08E145"/>
<path d="M10.3896 12.3562C10.2846 12.3562 10.1784 12.3299 10.0809 12.2743L4.28146 8.9681C3.98208 8.79747 3.87714 8.41558 4.04777 8.11552C4.21772 7.81557 4.60018 7.70994 4.90024 7.88183L10.6996 11.188C10.999 11.3587 11.104 11.7406 10.9333 12.0406C10.8177 12.2431 10.6065 12.3562 10.3896 12.3562Z" fill="#08E145"/>
</g>
<defs>
<clipPath id="clip0_48_2808">
<rect width="15" height="15" fill="white"/>
</clipPath>
</defs>
</svg>
